<svg width="354" height="354" viewBox="0 0 354 354" fill="none" xmlns="http://www.w3.org/2000/svg">
<path opacity="0.784" fill-rule="evenodd" clip-rule="evenodd" d="M188.496 8.43547C190.056 8.39902 191.561 8.67244 193.012 9.25573C197.209 8.37162 198.92 10.0122 198.144 14.1773C196.264 16.6617 193.869 17.5503 190.959 16.8432C189.356 15.3677 189.493 14.0006 191.37 12.7419C191.996 12.3282 192.68 12.1231 193.423 12.1267C193.212 12.9517 193.143 13.7719 193.217 14.5875C195.207 15.3349 195.891 14.6514 195.27 12.5368C194.219 11.3682 192.919 11.0265 191.37 11.5115C187.33 13.903 183.771 16.9107 180.695 20.5344C186.435 21.1487 192.183 21.6272 197.939 21.9698C198.009 22.5121 197.872 22.9905 197.528 23.4053C196.123 23.6816 194.823 24.16 193.628 24.8408C190.454 30.8829 186.485 36.3514 181.721 41.2461C176.776 46.3918 171.644 51.3132 166.325 56.0109C165.868 55.5093 165.799 54.9626 166.12 54.3703C170.773 49.7223 175.426 45.074 180.079 40.4258C182.926 37.3089 185.458 33.9595 187.675 30.3776C185.997 31.0472 184.218 31.5257 182.337 31.813C178.821 31.9249 177.247 30.2844 177.616 26.8914C178.642 25.3193 179.943 24.0205 181.516 22.9952C178.457 22.9918 175.584 23.7437 172.894 25.2509C172.563 25.1248 172.289 24.9197 172.073 24.6357C172.263 23.9296 172.331 23.1777 172.279 22.38C175.084 19.304 177.89 16.228 180.695 13.152C183.076 11.1461 185.676 9.57391 188.496 8.43547ZM174.947 21.9698C177.586 18.7169 180.46 15.6409 183.569 12.7419C185.132 11.4465 186.911 10.8996 188.906 11.1013C185.09 14.0494 181.532 17.3304 178.232 20.9445C177.196 21.4945 176.101 21.8363 174.947 21.9698ZM183.569 23.6104C186.192 23.5332 188.792 23.7383 191.37 24.2256C189.789 26.9697 187.462 28.6786 184.39 29.3522C181.464 29.2472 180.438 27.8801 181.311 25.2509C182.055 24.6451 182.807 24.0983 183.569 23.6104Z" fill="black"/>
<path opacity="0.819" fill-rule="evenodd" clip-rule="evenodd" d="M171.252 10.4861C172.627 10.4185 173.996 10.4868 175.358 10.6912C177.51 12.4153 177.51 14.1925 175.358 16.0229C173.64 17.2979 171.723 17.7081 169.61 17.2533C168.054 16.2268 168.054 15.1331 169.61 13.9723C171.285 12.9278 172.038 13.2696 171.868 14.9976C173.74 15.7929 174.356 15.2461 173.715 13.3571C171.936 12.3932 170.156 12.4615 168.378 13.5621C165.122 15.9934 162.111 18.7276 159.346 21.7648C162.055 22.3782 164.792 22.5149 167.557 22.1749C169.392 21.4908 171.171 20.7388 172.894 19.9192C172.023 22.2236 170.381 23.7958 167.968 24.6357C165.393 25.1081 162.793 25.3815 160.167 25.456C153.284 27.5111 151.437 31.6808 154.624 37.965C158.977 41.4061 163.083 41.1327 166.941 37.1448C167.146 36.7346 167.352 36.3245 167.557 35.9144C165.34 35.1455 164.45 33.6417 164.888 31.4029C166.667 29.8482 168.173 30.1216 169.405 32.2232C169.606 32.7535 169.674 33.3004 169.61 33.8637C170.92 33.6208 172.152 33.1423 173.305 32.4282C174.124 31.2686 175.082 30.2433 176.179 29.3522C176.589 29.4889 176.863 29.7624 177 30.1725C175.388 33.1465 172.925 35.0604 169.61 35.9144C166.753 41.8541 162.099 44.2466 155.651 43.0917C149.239 39.2951 148.212 34.3051 152.571 28.1218C153.477 27.08 154.503 26.1914 155.651 25.456C153.231 25.0305 150.904 25.3039 148.671 26.2762C148.397 26.5497 148.124 26.8231 147.85 27.0965C148.33 32.3306 145.935 35.5433 140.665 36.7346C139.13 36.5686 138.582 35.7483 139.023 34.2738C140.053 33.0642 141.285 32.7908 142.718 33.4536C145.279 32.846 145.963 31.3422 144.771 28.9421C143.339 27.5986 141.765 27.3935 140.049 28.3269C138.587 29.5147 137.424 30.9501 136.559 32.6333C133.329 44.9125 129.36 56.9431 124.653 68.725C123.354 71.0238 122.806 70.8872 123.011 68.3148C127.054 58.4421 130.201 48.3254 132.454 37.965C130.98 39.0094 129.406 39.898 127.732 40.6309C121.787 42.3809 116.176 44.8417 110.899 48.0133C110.282 48.6248 109.94 49.3765 109.873 50.269C108.968 60.9037 107.394 71.4306 105.151 81.8492C104.813 82.2126 104.402 82.3492 103.92 82.2593C105.861 70.436 107.23 58.5422 108.025 46.5778C107.978 45.0521 107.772 43.5483 107.409 42.0663C106.158 41.1648 105.063 41.4382 104.125 42.8866C105.97 47.7298 104.669 51.6261 100.224 54.5754C98.1031 55.1906 97.3505 54.4388 97.9664 52.3197C99.5138 51.5494 101.019 50.7292 102.483 49.8589C103.117 47.5667 102.296 46.1996 100.019 45.7575C97.1518 46.1612 95.5096 47.8017 95.0924 50.6791C94.8186 53.1399 94.5452 55.6007 94.2713 58.0615C94.0295 59.0307 93.4136 59.4408 92.4238 59.2919C92.5424 56.9357 92.3371 54.6115 91.8079 52.3197C91.5567 51.2812 90.9408 50.9396 89.9604 51.2943C89.0025 51.7045 88.3181 52.3882 87.9076 53.345C90.5085 57.822 89.8241 61.7863 85.8547 65.2388C83.7334 65.854 82.9808 65.1023 83.5966 62.9831C84.2363 62.0529 85.1256 61.5747 86.2653 61.5476C88.1769 59.0007 87.5611 57.2917 84.4178 56.421C83.7498 56.4723 83.1339 56.6773 82.5702 57.0362C80.9181 59.2685 80.5076 61.7293 81.3385 64.4186C81.5627 67.3596 80.6049 69.8204 78.4646 71.801C75.6214 72.8644 74.8689 71.9757 76.2065 69.1351C79.213 68.5966 80.0342 66.9561 78.6699 64.2135C76.3169 62.8584 74.5375 63.4051 73.3325 65.854C73.0587 67.6311 73.0587 69.4087 73.3325 71.1858C76.2512 82.9385 78.3726 94.8324 79.6963 106.867C79.654 109.971 79.1749 110.108 78.2593 107.277C76.7074 94.8775 74.1073 82.7101 70.4586 70.7756C69.247 69.1761 68.152 69.3127 67.1741 71.1858C67.1055 71.5274 67.0374 71.8695 66.9688 72.2111C70.1745 79.7694 72.2959 87.6304 73.3325 95.7937C74.1212 101.412 74.8052 107.017 75.3854 112.609C74.3355 113.079 73.7883 112.669 73.7431 111.379C72.9544 104.222 71.8594 97.1131 70.4586 90.0519C69.9392 87.014 68.9814 84.1431 67.5846 81.4391C67.2628 84.4175 65.6891 86.3316 62.8632 87.1809C62.4764 87.1366 62.1344 87.0001 61.8367 86.7708C61.6676 89.5732 60.7779 92.1025 59.1681 94.3583C56.2284 95.9766 54.107 95.2249 52.8043 92.1025C52.7468 91.0596 52.4734 90.1023 51.9832 89.2316C51.2857 90.6404 50.6698 92.0759 50.1357 93.538C50.9855 93.9268 51.6014 94.542 51.9832 95.3836C52.5128 97.1185 52.7181 98.896 52.599 100.715C54.7976 100.242 56.5084 100.925 57.7311 102.766C60.1965 107.967 61.7702 113.436 62.4526 119.171C63.098 121.76 63.2351 124.358 62.8632 126.964C62.4616 126.768 62.1196 126.495 61.8367 126.144C61.2221 119.997 59.9904 113.982 58.1417 108.098C57.6925 106.008 56.4608 104.778 54.4466 104.407C53.6115 104.347 52.9271 104.62 52.3938 105.227C51.9996 106.244 51.6576 107.269 51.3674 108.303C50.9777 108.556 50.6357 108.488 50.3409 108.098C50.3455 104.804 50.4822 101.523 50.7515 98.2545C48.9118 97.0569 47.2695 97.3305 45.8247 99.0748C44.9807 100.487 44.3649 101.991 43.9772 103.586C45.3371 104.884 46.5004 106.388 47.467 108.098C48.5193 111.104 48.1769 113.907 46.4406 116.505C44.3892 116.778 43.6366 115.889 44.1825 113.84C45.0791 113.01 45.8318 112.053 46.4406 110.969C45.7906 108.937 44.422 108.048 42.3349 108.303C40.4238 109.491 39.808 111.2 40.4874 113.429C42.3927 116.074 43.556 119.013 43.9772 122.247C43.7293 123.307 43.3872 124.332 42.9508 125.323C41.9665 126.371 41.0084 126.371 40.0768 125.323C39.8031 124.64 39.8031 123.956 40.0768 123.273C42.6809 120.961 42.3388 119.184 39.0504 117.941C37.0444 118.236 35.9495 119.398 35.7659 121.427C36.9887 124.56 38.5625 127.499 40.4874 130.245C40.8241 131.159 40.6873 131.979 40.0768 132.706C38.7959 130.469 37.0852 128.623 34.9448 127.169C34.5342 126.895 34.1237 126.895 33.7131 127.169C33.1204 127.892 32.7098 128.712 32.4814 129.63C36.66 133.531 40.5603 137.7 44.1825 142.139C48.8005 148.767 53.3167 155.466 57.7311 162.235C57.9323 162.766 58.0008 163.313 57.9364 163.876C57.3936 163.945 56.9145 163.809 56.4994 163.466C51.1534 154.296 44.8583 145.82 37.6135 138.037C37.714 139.806 37.714 141.584 37.6135 143.369C35.8519 147.374 33.2517 148.058 29.8127 145.42C27.7306 142.539 27.1832 139.395 28.1705 135.987C28.9699 134.557 29.9279 134.42 31.0444 135.577C31.3181 136.533 31.3181 137.491 31.0444 138.448C29.1098 140.125 29.1783 141.697 31.2497 143.164C35.2189 143.081 36.519 141.099 35.1501 137.217C34.7065 136.193 34.159 135.236 33.5078 134.346C28.1358 130.347 23.6196 125.563 19.9592 119.992C18.1353 116.372 17.1088 112.544 16.88 108.508C17.5466 108.45 18.0256 108.724 18.3169 109.328C20.1522 117.096 24.2579 123.385 30.6339 128.194C30.3647 125.203 31.6648 123.426 34.5342 122.862C33.8571 120.453 34.0624 118.128 35.1501 115.89C36.155 114.671 37.4551 114.056 39.0504 114.045C37.9801 111.524 38.0486 108.995 39.2557 106.457C39.9697 105.538 40.8593 104.854 41.9244 104.407C42.1756 101.124 43.202 98.1167 45.0036 95.3836C45.9977 94.5248 47.0926 93.8415 48.2881 93.3329C49.2468 89.9141 50.7523 86.7696 52.8043 83.8999C58.2258 78.0748 63.4946 72.1278 68.6111 66.0591C69.6477 65.6916 70.5374 65.8967 71.2797 66.6743C71.6743 64.1155 72.8378 61.9963 74.7695 60.3172C76.2508 59.636 77.7564 59.499 79.2857 59.9071C79.7332 57.5091 80.8282 55.4584 82.5702 53.7551C83.8167 52.9324 85.1851 52.5903 86.6759 52.7298C87.2433 50.7181 88.4064 49.0776 90.1657 47.8082C91.1564 42.9257 92.7986 38.2775 95.0924 33.8637C96.1755 32.4433 97.4754 31.2813 98.9928 30.3776C103.239 29.8979 104.402 31.6068 102.483 35.5042C101.343 37.6122 99.6321 38.4325 97.3505 37.965C96.5623 36.2075 96.9728 34.8403 98.5822 33.8637C98.9637 34.3513 99.1004 34.8981 98.9928 35.5042C100.566 35.6313 101.182 34.9477 100.84 33.4536C99.9929 33.0059 99.1032 32.9376 98.1717 33.2485C96.5462 34.4643 95.3831 36.0365 94.6819 37.965C93.7507 40.9605 92.861 43.9681 92.0132 46.9879C92.3663 47.7145 92.9136 48.2614 93.6555 48.6285C94.9216 46.1533 96.7006 44.171 98.9928 42.6815C100.113 42.2361 101.207 42.0993 102.277 42.2714C103.372 40.6309 104.741 39.2638 106.383 38.1701C107.802 37.7095 108.965 38.0513 109.873 39.1954C110.899 37.0764 112.473 35.5042 114.594 34.4789C116.404 33.9614 117.979 34.3031 119.316 35.5042C120.709 32.4674 123.036 30.6902 126.295 30.1725C126.936 30.2148 127.552 30.3516 128.143 30.5826C129.178 29.6164 130.273 28.7277 131.427 27.9168C132.757 27.3558 134.126 27.2191 135.533 27.5066C136.105 27.9869 136.447 28.6021 136.559 29.3522C138.467 26.8975 140.93 25.3937 143.95 24.8408C144.987 24.8675 145.945 25.1409 146.824 25.661C149.755 22.5828 153.381 21.2157 157.703 21.5597C161.402 16.7614 165.918 13.0703 171.252 10.4861ZM131.838 30.1725C132.614 30.089 133.23 30.3625 133.685 30.9928C133.821 32.3733 133.684 33.7404 133.275 35.0941C131.974 36.0175 130.606 36.8378 129.169 37.5549C129.613 35.5781 129.886 33.5274 129.99 31.4029C130.669 31.034 131.284 30.6239 131.838 30.1725ZM166.325 32.2232C167.734 32.1198 168.145 32.6666 167.557 33.8637C166.715 33.6272 166.305 33.0804 166.325 32.2232ZM123.216 33.4536C126.596 33.0651 127.759 34.4322 126.706 37.5549C126.207 38.1901 125.592 38.6686 124.858 38.9903C123.059 39.6363 121.28 40.1831 119.521 40.6309C119.957 37.7762 121.189 35.3838 123.216 33.4536ZM113.773 37.5549C116.92 37.2137 118.084 38.5808 117.263 41.6562C114.892 43.1452 112.497 44.444 110.078 45.5525C110.094 42.2756 111.326 39.6097 113.773 37.5549ZM64.5054 74.0567C65.8627 76.0163 66.3419 78.204 65.9424 80.6188C65.1323 83.0283 63.5582 83.7801 61.2209 82.8745C60.4437 81.6782 60.2384 80.3793 60.605 78.9783C61.9932 77.389 63.293 75.7485 64.5054 74.0567ZM57.9364 81.4391C58.1897 81.4846 58.395 81.6212 58.5522 81.8492C58.9472 83.717 59.4263 85.5626 59.9892 87.386C59.9395 89.7488 58.776 91.1842 56.4994 91.6924C54.8198 91.0834 53.9301 89.853 53.8307 88.0012C53.9946 87.3052 54.1998 86.6219 54.4466 85.9505C55.6984 84.4974 56.8615 82.9939 57.9364 81.4391Z" fill="black"/>
<path opacity="0.815" fill-rule="evenodd" clip-rule="evenodd" d="M141.281 14.9976C142.102 14.9976 142.923 14.9976 143.744 14.9976C143.677 15.9642 143.746 16.9212 143.95 17.8685C144.683 16.6949 145.641 16.4214 146.824 17.0483C147.097 17.4584 147.097 17.8685 146.824 18.2787C145.455 19.6457 144.086 21.0129 142.718 22.38C142.376 21.9698 142.033 21.5597 141.691 21.1496C141.425 22.5935 140.672 23.0036 139.433 22.38C138.674 21.0771 137.921 19.7783 137.175 18.4837C137.324 17.7105 137.803 17.3687 138.612 17.4584C139.654 17.5404 140.338 18.0872 140.665 19.0989C140.804 17.7128 141.01 16.3457 141.281 14.9976Z" fill="black"/>
<path opacity="0.821" fill-rule="evenodd" clip-rule="evenodd" d="M248.438 16.6381C249.162 16.5796 249.846 16.7163 250.491 17.0483C250.988 17.3657 250.988 17.7074 250.491 18.0736C242.362 19.6307 235.656 23.5953 230.373 29.9674C233.631 29.6726 235.342 31.1081 235.505 34.2738C240.295 32.4719 243.375 33.9757 244.743 38.7853C247.291 38.1029 249.754 38.308 252.133 39.4005C253.148 40.1381 253.833 41.0951 254.186 42.2714C257.735 42.2341 260.814 43.3962 263.424 45.7575C264.242 46.708 264.721 47.8017 264.861 49.0386C267.729 49.3786 270.33 50.4039 272.661 52.1146C278.409 57.3098 284.157 62.5045 289.905 67.6996C291.731 69.5231 293.578 71.3687 295.448 73.2364C299.964 79.3884 304.48 85.5404 308.996 91.6924C309.566 91.2601 310.182 91.192 310.844 91.4873C312.395 92.3535 313.832 93.3789 315.155 94.5633C316.532 96.4938 317.695 98.5445 318.645 100.715C320.263 100.264 321.905 100.196 323.571 100.51C325.23 101.445 325.161 102.197 323.366 102.766C321.702 102.592 320.197 102.045 318.85 101.125C319.47 103.799 320.428 106.396 321.724 108.918C322.408 110.148 323.366 111.105 324.598 111.789C324.796 112.178 324.864 112.588 324.803 113.019C322.289 112.085 320.305 110.445 318.85 108.098C317.112 103.434 315.059 98.9226 312.691 94.5633C311.67 93.6434 310.575 92.8231 309.407 92.1025C308.928 92.7862 308.449 93.4695 307.97 94.1532C309.987 95.1433 311.697 96.5102 313.102 98.2545C313.983 99.941 313.915 101.582 312.897 103.176C315.947 104.511 317.863 106.767 318.645 109.943C318.62 110.532 318.484 111.079 318.234 111.584C320.998 113.235 322.299 115.628 322.134 118.761C321.619 119.053 321.14 119.394 320.697 119.786C324.497 121.976 326.003 125.189 325.214 129.425C327.624 131.783 329.061 134.654 329.525 138.037C332.193 140.157 334.862 142.275 337.531 144.394C340.266 146.853 342.045 149.861 342.868 153.417C342.829 155.644 341.734 156.737 339.583 156.698C336.61 155.199 335.309 152.807 335.683 149.521C337.609 148.463 339.046 149.009 339.994 151.162C339.36 151.552 338.675 151.689 337.941 151.572C337.604 153.913 338.356 154.46 340.199 153.212C340.616 151.033 340.068 149.119 338.557 147.47C335.931 144.915 333.126 142.59 330.14 140.498C329.482 145.755 330.577 150.608 333.425 155.058C333.107 155.562 332.696 155.699 332.193 155.468C328.892 152.144 327.181 148.111 327.061 143.369C326.369 141.097 325.206 139.114 323.571 137.422C319.277 134.883 316.471 136.045 315.155 140.908C314.738 144.299 315.422 147.444 317.208 150.341C318.737 152.3 320.38 152.436 322.134 150.752C323.898 151.353 324.445 152.584 323.777 154.443C322.187 155.011 320.613 154.943 319.055 154.238C312.47 149.406 310.623 143.186 313.513 135.577C316.499 132.53 319.715 132.325 323.161 134.961C326.675 139.176 327.428 138.561 325.419 133.116C325.075 132.154 324.528 131.334 323.777 130.655C319.358 131.593 316.073 129.952 313.923 125.733C313.183 122.361 314.141 121.677 316.797 123.683C316.934 124.777 317.071 125.87 317.208 126.964C318.247 128.723 319.684 129.065 321.519 127.989C322.792 125.724 322.518 123.674 320.697 121.837C319.345 120.839 317.839 120.155 316.181 119.786C303.533 117.824 291.079 115.021 278.82 111.379C278.456 111.04 278.319 110.63 278.409 110.148C288.995 112.723 299.669 114.91 310.433 116.711C310.707 116.574 310.981 116.437 311.254 116.3C308.469 112.515 306.211 108.414 304.48 103.996C302.815 100.966 300.831 98.1635 298.527 95.5887C287.422 95.3881 276.337 94.8414 265.271 93.9481C264.667 93.6569 264.393 93.1787 264.45 92.5127C276.07 93.2936 287.702 93.4986 299.348 93.1279C301.014 92.9884 302.656 92.7149 304.275 92.3076C304.904 92.0205 305.314 91.5423 305.507 90.8721C305.033 89.7845 304.28 88.9642 303.248 88.4113C298.011 89.7328 292.674 90.4165 287.236 90.462C278.691 90.2155 270.207 89.5322 261.782 88.4113C261.713 88.2748 261.645 88.1378 261.576 88.0012C262.876 87.8646 264.176 87.7277 265.477 87.5911C271.282 88.0845 277.099 88.358 282.926 88.4113C286.658 88.4999 290.353 88.2264 294.011 87.5911C292.791 86.8504 291.627 86.0301 290.521 85.1303C289.51 83.7227 289.305 82.2188 289.905 80.6188C286.975 80.0807 284.717 78.5772 283.131 76.1074C282.538 74.1748 283.017 72.6028 284.568 71.3908C286.176 70.9389 287.818 70.6653 289.495 70.5706C288.271 69.3504 286.834 68.4621 285.184 67.9047C279.813 70.0833 274.27 71.6554 268.556 72.6212C260.637 73.7676 252.7 74.5878 244.743 75.082C244.203 74.5099 244.34 74.0998 245.154 73.8516C252.563 73.0445 259.953 72.0872 267.324 70.9807C270.405 70.4164 273.416 69.5961 276.357 68.5199C274.197 68.0011 272.486 66.8388 271.224 65.0338C271.02 64.0864 270.952 63.1295 271.019 62.1629C267.534 62.306 264.865 60.939 263.013 58.0615C262.686 56.5822 263.028 55.2833 264.04 54.1653C265.593 53.3667 267.235 52.82 268.966 52.5247C267.751 51.7541 266.451 51.1389 265.066 50.6791C262.896 52.5182 260.364 53.2015 257.471 52.7298C257.952 55.629 256.72 57.6116 253.776 58.6767C246.45 61.2638 238.923 62.4257 231.194 62.1629C231.437 61.6301 231.847 61.2885 232.426 61.1375C238.594 60.8045 244.615 59.7107 250.491 57.8565C252.246 57.2667 253.341 56.1048 253.776 54.3703C253.814 53.3811 253.404 52.6293 252.544 52.1146C251.561 51.8353 250.603 51.4933 249.67 51.0893C249.756 50.8489 249.893 50.6439 250.08 50.4741C253.508 50.5446 256.929 50.6812 260.345 50.8842C261.399 48.7064 260.852 46.929 258.702 45.5525C257.492 44.8303 256.191 44.3518 254.802 44.117C251.392 47.7537 247.355 48.6424 242.69 46.7829C241.642 45.7996 241.642 44.8426 242.69 43.912C244.404 43.4944 245.636 44.1096 246.385 45.7575C248.437 46.2325 249.805 45.4123 250.491 43.2968C249.823 40.7075 248.18 39.6822 245.564 40.2208C243.479 41.3986 241.289 42.3555 238.995 43.0917C236.832 43.5297 234.78 43.2563 232.837 42.2714C231.842 41.4052 231.842 40.585 232.837 39.8106C233.658 39.5372 234.479 39.5372 235.3 39.8106C236.696 41.8783 238.27 42.0833 240.022 40.4258C241.144 36.8968 239.844 35.3246 236.121 35.7093C233.613 36.6202 231.286 37.8506 229.142 39.4005C228.001 40.1051 226.907 40.1051 225.857 39.4005C227.946 38.1359 229.794 36.5637 231.4 34.684C231.688 32.9834 230.936 32.0264 229.142 31.813C218.834 41.9461 207.202 50.1488 194.244 56.421C194.16 55.6458 194.434 55.0306 195.065 54.5754C204.254 49.3589 212.876 43.3435 220.93 36.5296C219.035 36.7247 217.119 36.7247 215.182 36.5296C210.866 34.33 210.455 31.5957 213.951 28.3269C216.852 26.8 219.863 26.5266 222.983 27.5066C224.625 28.4636 224.625 29.4206 222.983 30.3776C222.299 30.651 221.615 30.651 220.93 30.3776C220.094 29.4799 219.068 28.8647 217.851 28.532C214.372 30.3515 214.303 32.3338 217.646 34.4789C219.86 34.9026 221.913 34.4925 223.804 33.2485C227.667 28.5688 232.046 24.4675 236.942 20.9445C240.568 18.8051 244.4 17.3696 248.438 16.6381ZM268.966 54.3703C272.152 54.8719 274.752 56.4444 276.767 59.0869C274.742 59.3965 272.758 59.8751 270.814 60.5223C267.975 60.2861 266.606 58.7821 266.708 56.0109C267.324 55.2033 268.077 54.6566 268.966 54.3703ZM276.357 60.9325C277.709 60.8336 278.941 61.1753 280.052 61.9578C281.283 63.1882 282.515 64.4186 283.747 65.649C281.155 67.0205 278.555 67.1574 275.946 66.0591C274.236 64.1594 274.372 62.4508 276.357 60.9325ZM287.852 72.8263C289.447 72.6659 290.952 72.9395 292.369 73.6466C293.749 75.1071 294.981 76.6795 296.064 78.3631C294.337 78.4701 292.626 78.6752 290.932 78.9783C287.53 78.7277 286.161 76.9506 286.826 73.6466C287.234 73.4144 287.576 73.1409 287.852 72.8263ZM295.653 80.2087C296.512 80.4322 297.333 80.7739 298.116 81.234C299.448 82.8011 300.68 84.4417 301.812 86.1556C299.236 87.0768 296.772 86.8717 294.421 85.5404C292.49 83.1493 292.901 81.3718 295.653 80.2087ZM301.812 94.9735C304.925 94.7848 307.593 95.7417 309.818 97.8444C310.523 100.83 309.36 102.129 306.328 101.741C304.841 99.5715 303.199 97.5208 301.401 95.5887C301.629 95.4316 301.766 95.2265 301.812 94.9735ZM307.149 104.407C309.206 104.172 311.259 104.514 313.307 105.432C315.046 106.674 315.525 108.246 314.744 110.148C313.555 111.069 312.255 111.206 310.844 110.559C309.499 108.55 308.267 106.499 307.149 104.407ZM311.665 113.429C313.459 113.481 315.306 113.344 317.208 113.019C318.552 113.926 319.1 115.157 318.85 116.711C317.45 117.171 316.013 117.239 314.539 116.916C313.326 115.914 312.368 114.752 311.665 113.429Z" fill="black"/>
<path opacity="0.808" fill-rule="evenodd" clip-rule="evenodd" d="M228.321 18.6888C230.905 19.4188 231.042 20.5808 228.731 22.1749C229.706 22.0099 230.664 22.0782 231.605 22.38C232.062 22.8816 232.131 23.4284 231.81 24.0205C230.081 24.6922 228.302 25.2391 226.473 25.661C225.729 25.1728 225.387 24.6259 225.447 24.0205C224.905 24.7465 224.289 24.8832 223.599 24.4306C223.36 22.6539 223.154 20.8767 222.983 19.0989C224.99 18.7362 226.016 19.5565 226.062 21.5597C226.459 20.2799 227.212 19.3228 228.321 18.6888Z" fill="black"/>
<path opacity="0.746" fill-rule="evenodd" clip-rule="evenodd" d="M195.475 28.9421C197.78 28.3593 198.67 29.1796 198.144 31.4029C196.508 32.2172 195.345 31.807 194.654 30.1725C194.939 29.7551 195.212 29.3449 195.475 28.9421Z" fill="black"/>
<path opacity="0.8" fill-rule="evenodd" clip-rule="evenodd" d="M262.808 36.3245C264.384 36.3932 265.342 37.2135 265.682 38.7853C267.103 37.1825 268.472 37.1825 269.788 38.7853C269.234 39.8161 268.413 40.5681 267.324 41.041C268.145 41.1777 268.966 41.3145 269.788 41.4512C270.406 41.7946 270.612 42.273 270.403 42.8866C269.644 43.3217 268.823 43.5951 267.94 43.7069C266.97 43.2438 266.012 43.2438 265.066 43.7069C264.493 43.5919 264.014 43.3184 263.629 42.8866C264.01 42.3667 264.079 41.8198 263.834 41.2461C263.042 42.3144 262.289 42.3144 261.576 41.2461C262.138 39.6298 262.549 37.9893 262.808 36.3245Z" fill="black"/>
<path opacity="0.789" fill-rule="evenodd" clip-rule="evenodd" d="M41.5138 88.0012C42.1805 87.9438 42.6594 88.2174 42.9508 88.8215C43.2245 90.7356 43.2245 92.6492 42.9508 94.5633C42.3657 94.8554 41.7499 94.9238 41.1032 94.7684C42.2542 95.6797 42.1857 96.4315 40.898 97.0241C39.3872 96.3888 37.8134 96.1153 36.1765 96.2039C35.8763 94.049 36.8343 93.1603 39.0504 93.538C37.4622 92.6513 36.8463 91.3528 37.2029 89.6417C38.8565 88.6878 39.9514 89.2349 40.4874 91.2823C40.5273 90.0593 40.8694 88.9654 41.5138 88.0012Z" fill="black"/>
<path opacity="0.782" fill-rule="evenodd" clip-rule="evenodd" d="M330.962 119.171C332.088 118.998 332.635 119.476 332.604 120.607C332.545 121.489 332.135 122.173 331.372 122.657C332.727 122.292 334.027 122.497 335.273 123.273C335.879 125.267 335.126 126.155 333.014 125.938C334.093 126.999 334.093 128.024 333.014 129.014C331.382 127.862 329.808 126.632 328.293 125.323C328.109 124.54 328.451 124.062 329.319 123.888C328.449 123.848 327.765 123.506 327.267 122.862C328.433 121.536 329.664 120.305 330.962 119.171Z" fill="black"/>
<path opacity="0.79" fill-rule="evenodd" clip-rule="evenodd" d="M23.0384 126.964C23.6452 126.856 24.1926 126.993 24.6807 127.374C25.5498 129.22 26.0288 131.134 26.1177 133.116C25.5826 133.367 25.1036 133.504 24.6807 133.526C25.276 134.08 25.5498 134.763 25.5018 135.577C23.5858 135.713 21.6699 135.85 19.7539 135.987C19.3691 134.252 20.0534 133.227 21.8067 132.911C20.1682 132.246 19.4155 131.084 19.5486 129.425C19.8519 128.984 20.2625 128.711 20.7803 128.604C21.5784 128.989 22.2627 129.537 22.8331 130.245C22.547 129.142 22.6154 128.048 23.0384 126.964Z" fill="black"/>
<path opacity="0.867" fill-rule="evenodd" clip-rule="evenodd" d="M23.8595 146.65C24.8008 146.545 25.6903 146.682 26.5282 147.06C27.1981 149.403 27.1981 151.727 26.5282 154.033C23.7152 156.974 20.4991 159.367 16.88 161.21C13.2892 163.284 11.7153 166.36 12.1585 170.438C12.8152 172.708 12.2678 172.982 10.5162 171.258C7.02282 166.565 7.63867 162.532 12.3638 159.159C15.3745 157.519 18.3854 155.878 21.3962 154.238C23.0603 153.259 24.292 151.892 25.0912 150.136C23.4618 149.446 23.0512 148.284 23.8595 146.65Z" fill="black"/>
<path opacity="0.846" fill-rule="evenodd" clip-rule="evenodd" d="M30.4286 149.931C31.1143 150.034 31.7302 150.308 32.2761 150.752C33.1704 153.424 33.0335 156.021 31.8656 158.544C30.0865 161.005 28.3073 163.466 26.5282 165.926C25.2747 168.3 25.2062 170.693 26.3229 173.104C26.1073 173.388 25.8336 173.593 25.5018 173.719C21.6016 170.716 20.9858 167.161 23.6543 163.055C25.9983 160.578 28.1879 157.981 30.2233 155.263C30.3504 154.744 30.5556 154.265 30.8391 153.828C28.8382 152.666 28.7013 151.367 30.4286 149.931Z" fill="black"/>
<path opacity="0.855" fill-rule="evenodd" clip-rule="evenodd" d="M318.645 156.083C320.27 155.705 321.228 156.32 321.519 157.929C320.952 158.752 320.404 159.572 319.876 160.39C319.998 161.164 320.203 161.916 320.492 162.645C322.206 165.523 324.122 168.257 326.24 170.848C329.304 175.817 328.551 180.055 323.982 183.562C323.845 183.289 323.708 183.015 323.571 182.742C324.722 180.619 324.928 178.431 324.187 176.18C321.998 171.805 319.808 167.43 317.618 163.055C317.334 160.6 317.676 158.276 318.645 156.083Z" fill="black"/>
<path opacity="0.863" fill-rule="evenodd" clip-rule="evenodd" d="M325.624 156.904C327.534 157.207 328.15 158.3 327.472 160.185C327.034 160.468 326.555 160.673 326.035 160.8C326.375 161.545 326.718 162.296 327.061 163.055C330.326 165.768 333.815 168.161 337.531 170.233C342.971 174.696 342.971 179.14 337.531 183.562C337.394 183.289 337.257 183.015 337.12 182.742C338.246 180.388 338.177 178.064 336.915 175.77C333.996 172.77 330.781 170.104 327.267 167.772C323.503 164.546 322.955 160.923 325.624 156.904Z" fill="black"/>
<path opacity="0.824" fill-rule="evenodd" clip-rule="evenodd" d="M14.006 178.23C17.8225 178.697 19.67 180.885 19.5486 184.793C19.2652 186.306 18.3756 186.785 16.88 186.228C14.6509 184.564 14.7193 183.539 17.0852 183.152C17.2879 182.482 17.3563 181.798 17.2905 181.101C16.3602 180.954 15.6075 181.228 15.0324 181.922C14.5549 184.592 15.2391 186.915 17.0852 188.894C19.4118 191.218 21.7383 193.542 24.0648 195.866C24.3386 192.585 24.3386 189.304 24.0648 186.023C23.8119 184.102 23.1961 182.325 22.2173 180.691C22.3541 180.418 22.491 180.144 22.6279 179.871C24.6564 181.596 25.9565 183.783 26.5282 186.433C26.8261 189.765 27.3735 193.046 28.1705 196.276C32.1079 202.94 35.6661 202.803 38.8451 195.866C39.4407 192.498 38.8933 189.354 37.2029 186.433C36.1527 184.822 34.9895 184.617 33.7131 185.818C31.492 185.943 30.6709 184.917 31.2497 182.742C32.9 181.668 34.5423 181.737 36.1765 182.947C41.7966 188.052 43.2336 194.136 40.4874 201.198C37.8399 204.379 34.7607 204.857 31.2497 202.633C29.7978 201.32 28.4977 199.885 27.3493 198.327C27.0227 200.585 27.2964 202.772 28.1705 204.889C28.8389 205.796 29.66 205.933 30.6339 205.299C35.5593 206.384 38.0227 209.391 38.024 214.322C37.3153 214.763 36.5627 214.832 35.7659 214.527C35.1479 212.858 34.8058 211.149 34.7395 209.4C32.5959 207.698 30.9537 208.108 29.8127 210.631C29.6384 212.949 30.5279 214.795 32.4814 216.168C42.7881 219.417 53.0523 222.835 63.2737 226.421C66.0109 227.515 68.7478 228.608 71.485 229.702C71.8286 230.117 71.9654 230.595 71.8956 231.138C61.6438 227.451 51.243 224.17 40.6927 221.294C40.419 221.363 40.1453 221.431 39.8716 221.499C41.7843 224.766 43.2213 228.252 44.1825 231.958C44.6943 233.118 45.3102 234.211 46.03 235.239C56.4879 237.205 66.8891 239.461 77.2329 242.006C80.3951 243.094 80.3951 243.641 77.2329 243.647C64.9591 240.395 52.5054 238.345 39.8716 237.495C39.1817 237.637 38.7712 238.047 38.6399 238.725C39.0099 241.163 40.31 242.052 42.5402 241.391C54.7139 242.808 66.5517 245.542 78.054 249.593C77.8951 250.094 77.5531 250.367 77.0276 250.414C68.8291 248.144 60.5492 246.23 52.1885 244.672C51.8017 244.716 51.4597 244.853 51.1621 245.082C49.9739 247.363 48.4684 249.414 46.6459 251.234C45.7842 252.924 46.2632 254.154 48.0828 254.925C53.9338 254.121 59.8188 253.915 65.7371 254.31C73.5395 255.13 81.272 256.293 88.934 257.796C89.1852 258.509 88.9118 258.919 88.1129 259.027C81.7684 258.023 75.4047 257.135 69.0216 256.361C64.6421 256.087 60.263 256.087 55.8836 256.361C57.573 257.365 59.1467 258.527 60.605 259.847C62.4427 263.444 61.4163 265.631 57.5258 266.409C56.423 266.199 55.3281 266.13 54.2413 266.204C55.2891 267.934 56.726 269.233 58.5522 270.1C61.5617 268.849 64.6409 268.644 67.7899 269.485C68.0638 269.758 68.3372 270.032 68.6111 270.305C66.1583 270.746 63.695 271.292 61.2209 271.946C60.0857 273.162 60.2224 274.256 61.6315 275.227C67.0308 274.017 72.5048 273.06 78.054 272.356C85.7135 271.923 93.3771 271.581 101.046 271.331C102.109 271.342 103.135 271.479 104.125 271.741C104.312 272.251 104.107 272.592 103.509 272.766C97.2118 272.996 90.9166 273.269 84.6231 273.586C80.1787 273.868 75.7992 274.551 71.485 275.637C73.1457 276.364 74.7194 277.253 76.2065 278.303C77.2194 279.629 77.6981 281.133 77.6435 282.814C79.2291 283.195 80.7346 283.81 82.1597 284.66C85.718 287.667 89.276 290.675 92.8343 293.683C95.6705 295.555 98.6126 297.264 101.661 298.809C101.915 299.199 101.847 299.54 101.456 299.835C98.7149 300.381 96.5253 301.748 94.8872 303.936C95.161 304.346 95.4344 304.756 95.7083 305.166C97.1395 305.591 98.5079 306.137 99.8139 306.807C96.6177 308.019 93.8119 307.404 91.3974 304.961C91.0923 304.165 91.1609 303.414 91.6026 302.706C91.0554 302.569 90.5077 302.432 89.9604 302.296C84.497 302.52 79.023 302.52 73.5378 302.296C70.939 301.988 68.6808 300.963 66.7635 299.22C65.3364 295.448 66.6366 293.876 70.6639 294.503C72.8333 294.827 74.3388 295.989 75.1801 297.989C74.2202 299.611 72.8518 300.021 71.0744 299.22C70.7107 298.881 70.574 298.471 70.6639 297.989C72.0889 297.825 72.2257 297.21 71.0744 296.144C70.002 295.84 69.318 296.25 69.0216 297.374C70.2229 299.62 72.1386 300.85 74.7695 301.065C78.2228 301.436 81.6444 301.3 85.0336 300.655C83.7313 299.35 83.1836 297.778 83.3914 295.938C79.7919 296.23 77.1233 294.864 75.3854 291.837C74.8266 289.879 75.4424 288.444 77.2329 287.531C78.4334 287.126 79.6651 286.852 80.928 286.71C79.849 285.699 78.6173 284.947 77.2329 284.455C72.8333 286.95 68.7962 286.404 65.1213 282.814C64.0981 281.231 64.5087 280.274 66.3529 279.943C67.8979 280.258 68.719 281.215 68.8163 282.814C70.2644 284.587 71.7699 284.723 73.3325 283.224C74.3364 280.241 73.31 278.258 70.2533 277.277C68.8849 277.004 67.5161 277.004 66.1477 277.277C60.5139 279.386 54.6974 280.547 48.6987 280.764C44.2796 280.997 40.1055 280.108 36.1765 278.098C35.833 277.683 35.6961 277.204 35.7659 276.662C43.739 279.477 51.6765 279.34 59.5786 276.252C57.5435 275.058 56.4485 273.281 56.2941 270.92C53.6846 269.202 51.5632 267.015 49.9304 264.358C47.8102 260.394 45.4836 256.566 42.9508 252.875C42.6351 251.809 42.7035 250.783 43.1561 249.799C40.0652 248.214 38.4914 245.685 38.4346 242.211C36.2407 240.701 35.2827 238.65 35.5606 236.059C35.9312 235.567 36.4102 235.224 36.9976 235.034C35.5033 233.641 34.0663 232.206 32.6867 230.727C31.7437 228.883 31.4699 226.969 31.8656 224.986C29.7748 223.271 28.8168 221.084 28.9916 218.423C29.49 217.788 30.1059 217.31 30.8391 216.988C27.6627 214.678 26.3626 211.602 26.9388 207.76C27.0924 207.384 27.2977 207.042 27.5546 206.735C25.2703 204.268 24.1071 201.329 24.0648 197.917C19.8932 194.3 16.335 190.198 13.3902 185.613C12.5108 183.779 12.2371 181.865 12.569 179.871C12.9927 179.245 13.4717 178.698 14.006 178.23ZM32.4814 220.064C33.8567 219.996 35.2253 220.065 36.587 220.269C37.6647 221.394 38.4858 222.693 39.0504 224.165C37.265 223.788 35.4174 223.788 33.5078 224.165C32.2848 222.971 31.9427 221.604 32.4814 220.064ZM36.587 226.216C37.767 226.266 38.7934 226.676 39.6663 227.446C40.8576 230.076 41.9524 232.673 42.9508 235.239C38.7976 234.912 36.1289 232.793 34.9448 228.882C35.2527 227.827 35.8001 226.939 36.587 226.216ZM43.5666 243.852C44.7983 243.852 46.03 243.852 47.2617 243.852C46.6784 245.69 45.5835 247.194 43.9772 248.363C42.6811 247.426 42.0652 246.196 42.1297 244.672C42.6644 244.432 43.1433 244.159 43.5666 243.852ZM48.904 256.976C52.6454 256.418 55.5875 257.649 57.7311 260.667C58.4196 262.781 57.6671 264.012 55.473 264.358C54.2475 264.156 53.1525 263.677 52.1885 262.923C50.9272 261.017 49.8327 259.035 48.904 256.976ZM80.5174 288.556C81.6752 288.453 82.7698 288.658 83.8019 289.171C85.4302 290.387 86.9358 291.754 88.3181 293.273C85.7303 294.264 83.1298 294.401 80.5174 293.683C78.3414 291.921 78.3414 290.212 80.5174 288.556ZM89.9604 294.708C92.3449 296.242 94.8083 297.678 97.3505 299.014C94.4089 300.702 91.3982 300.975 88.3181 299.835C86.9432 297.46 87.4904 295.751 89.9604 294.708Z" fill="black"/>
<path opacity="0.81" fill-rule="evenodd" clip-rule="evenodd" d="M299.348 179.051C300.627 179.293 301.653 179.977 302.427 181.101C308.049 189.042 314.413 196.356 321.519 203.043C321.792 203.317 322.066 203.317 322.34 203.043C321.544 201.14 321.339 199.158 321.724 197.096C323.986 193.032 326.723 192.758 329.935 196.276C331.726 198.966 332.136 201.837 331.167 204.889C329.36 206.228 328.334 205.749 328.088 203.454C328.074 202.645 328.417 202.03 329.114 201.608C329.891 199.194 329.07 197.69 326.651 197.096C323.769 198.483 322.948 200.67 324.187 203.659C324.828 205.005 325.717 206.167 326.856 207.145C334.243 211.379 339.785 217.326 343.484 224.986C344.291 226.839 344.701 228.753 344.715 230.727C344.305 231.274 343.894 231.274 343.484 230.727C341.119 222.864 336.466 216.712 329.525 212.271C329.459 213.825 329.185 215.329 328.703 216.783C327.861 217.284 326.971 217.695 326.035 218.013C327.462 221.125 327.051 223.927 324.803 226.421C324.026 226.82 323.205 227.094 322.34 227.241C323.489 230.067 323.42 232.87 322.134 235.649C321.483 236.008 320.867 236.418 320.287 236.879C320.25 240.072 319.497 243.08 318.029 245.902C317.18 246.956 316.154 247.777 314.95 248.363C314.011 252.891 312.163 256.992 309.407 260.667C305.415 265.677 301.515 270.735 297.706 275.842C297.205 275.683 296.931 275.342 296.885 274.817C297.138 273.597 297.549 272.435 298.116 271.331C295.177 266.278 292.919 260.947 291.342 255.335C289.288 247.334 287.578 239.268 286.21 231.138C287.379 231.264 287.994 231.948 288.058 233.188C289.297 239.233 290.665 245.248 292.163 251.234C293.187 255.055 294.555 258.746 296.269 262.308C296.376 259.838 297.402 257.855 299.348 256.361C300.158 256.158 300.979 256.089 301.812 256.156C301.843 254.36 302.048 252.583 302.427 250.824C303.474 248.011 305.459 246.986 308.381 247.748C310.053 249.201 310.943 251.047 311.049 253.285C311.829 251.766 312.445 250.194 312.897 248.568C311.87 248.09 311.118 247.338 310.639 246.312C310.213 244.978 309.939 243.611 309.818 242.211C306.506 242.059 304.18 240.418 302.838 237.289C299.89 230.572 298.18 223.6 297.706 216.373C298.107 216.568 298.449 216.842 298.732 217.193C299.76 223.761 301.676 230.05 304.48 236.059C307.811 239.288 309.727 238.604 310.228 234.008C310.523 233.618 310.865 233.55 311.255 233.803C311.654 234.713 311.927 235.67 312.076 236.674C311.643 239.056 311.575 241.448 311.87 243.852C313.575 245.016 315.081 244.742 316.387 243.031C317.687 241.188 318.166 239.206 317.824 237.084C315.632 236.261 314.332 234.689 313.923 232.368C312.998 230.115 313.134 227.928 314.334 225.806C316.578 224.483 317.536 225.167 317.208 227.856C316.348 228.649 315.733 229.606 315.36 230.727C316.648 233.802 318.496 234.212 320.903 231.958C321.108 231.343 321.313 230.727 321.519 230.112C320.131 227.135 318.694 224.196 317.208 221.294C316.934 219.79 316.934 218.287 317.208 216.783C318.674 214.501 319.837 214.638 320.697 217.193C320.223 218.41 319.675 219.572 319.055 220.679C319.663 223.238 321.169 223.921 323.571 222.73C324.957 221.187 325.162 219.478 324.187 217.603C321.951 215.182 320.24 212.448 319.055 209.4C319.41 208.956 319.821 208.888 320.287 209.195C321.636 211.364 323.484 212.936 325.83 213.912C326.966 213.594 327.445 212.842 327.267 211.656C327.13 211.178 326.993 210.699 326.856 210.221C321.695 206.638 317.11 202.4 313.102 197.507C308.996 192.311 304.891 187.117 300.785 181.922C300.085 181.07 299.606 180.113 299.348 179.051ZM305.507 251.234C308.15 251.002 309.518 252.232 309.612 254.925C308.734 257.224 307.434 259.274 305.712 261.077C304.917 259.038 304.165 256.987 303.454 254.925C303.722 254.263 303.928 253.579 304.07 252.875C304.635 252.38 305.113 251.834 305.507 251.234ZM299.759 259.847C303.639 259.906 304.666 261.683 302.838 265.179C301.877 266.479 300.85 267.709 299.759 268.87C297.647 265.797 297.647 262.789 299.759 259.847Z" fill="black"/>
<path opacity="0.796" fill-rule="evenodd" clip-rule="evenodd" d="M338.352 203.659C339.357 203.488 339.904 203.899 339.994 204.889C339.678 205.957 338.994 206.709 337.941 207.145C339.894 207.583 340.647 208.745 340.199 210.631C339.016 211.258 338.059 210.984 337.325 209.811C337.389 210.758 337.389 211.715 337.325 212.682C336.712 213.193 336.096 213.193 335.478 212.682C334.793 211.041 334.109 209.4 333.425 207.76C333.877 206.983 334.424 206.71 335.067 206.94C334.657 206.393 334.246 205.846 333.836 205.299C333.921 205.059 334.058 204.854 334.246 204.684C335.738 204.623 337.106 204.281 338.352 203.659Z" fill="black"/>
<path opacity="0.776" fill-rule="evenodd" clip-rule="evenodd" d="M18.9328 206.53C20.993 207.557 22.7721 208.992 24.2701 210.836C23.8595 211.52 23.3121 212.066 22.6278 212.476C23.498 212.517 24.1822 212.858 24.6807 213.502C23.2846 214.621 21.7792 215.579 20.1645 216.373C18.5376 215.409 18.5376 214.384 20.1645 213.297C19.1881 213.087 18.2301 212.814 17.2905 212.476C16.4201 211.852 16.2832 211.1 16.8799 210.221C17.6696 209.889 18.4907 209.684 19.3433 209.606C18.5031 208.65 18.3662 207.625 18.9328 206.53Z" fill="black"/>
<path opacity="0.767" fill-rule="evenodd" clip-rule="evenodd" d="M28.7863 230.317C28.6919 227.846 27.8708 225.659 26.3229 223.755C27.5794 223.385 28.6058 223.795 29.4022 224.986C30.8109 228.015 31.9057 231.159 32.6867 234.419C33.2235 235.297 33.8394 236.117 34.5342 236.879C34.0321 237.336 33.4847 237.405 32.892 237.084C30.7206 235.269 29.352 233.013 28.7863 230.317Z" fill="black"/>
<path opacity="0.726" fill-rule="evenodd" clip-rule="evenodd" d="M28.7863 230.317C28.7863 230.727 28.7863 231.138 28.7863 231.548C27.2722 231.432 25.7668 231.227 24.2701 230.932C22.6038 229.9 22.6722 229.148 24.4754 228.677C25.9666 229.104 27.4036 229.651 28.7863 230.317Z" fill="black"/>
<path opacity="0.797" fill-rule="evenodd" clip-rule="evenodd" d="M321.108 244.672C322.756 244.604 324.398 244.672 326.035 244.877C327.13 245.697 327.13 246.517 326.035 247.338C325.35 247.474 324.666 247.611 323.982 247.748C325.648 248.546 326.264 249.845 325.83 251.644C324.647 252.271 323.689 251.998 322.956 250.824C322.97 252.45 322.218 253.202 320.697 253.08C320.033 251.027 319.759 248.908 319.876 246.723C321.705 247.382 321.979 246.903 320.697 245.287C320.926 245.13 321.062 244.925 321.108 244.672Z" fill="black"/>
<path opacity="0.817" fill-rule="evenodd" clip-rule="evenodd" d="M219.288 324.648C222.202 320.594 226.171 318.065 231.194 317.06C235.691 313.931 236.58 310.035 233.863 305.372C229.538 301.988 225.433 302.262 221.546 306.192C220.911 307.302 220.432 308.464 220.109 309.678C222.829 309.66 224.129 310.959 224.01 313.574C221.57 315.439 219.791 314.893 218.672 311.934C216.504 313.252 215.135 315.166 214.567 317.676C214.152 318.019 213.672 318.155 213.13 318.086C213.414 314.65 215.056 312.052 218.056 310.293C219.087 305.235 221.961 301.749 226.678 299.835C234.461 298.996 238.087 302.482 237.558 310.293C237.167 312.509 236.278 314.491 234.89 316.24C237.327 316.156 239.449 315.267 241.253 313.574C241.139 309.497 242.713 306.284 245.975 303.936C246.9 303.464 247.858 303.327 248.849 303.526C249.515 304.841 249.242 305.934 248.028 306.807C244.827 306.584 243.527 308.02 244.127 311.113C246.552 312.916 248.742 312.642 250.696 310.293C251.338 309.285 251.748 308.192 251.928 307.012C252.444 293.819 253.676 280.694 255.623 267.639C255.915 267.035 256.393 266.762 257.06 266.819C255.747 277.785 254.926 288.79 254.597 299.835C254.57 302.254 254.775 304.646 255.212 307.012C256.384 308.044 257.479 307.907 258.497 306.602C258.566 305.987 258.634 305.372 258.702 304.756C257.593 296.478 257.662 288.207 258.908 279.943C259.553 275.016 260.238 270.094 260.96 265.179C261.252 264.574 261.731 264.301 262.397 264.358C261.645 271.19 260.893 278.026 260.139 284.865C259.76 288.997 259.897 293.098 260.55 297.169C261.793 293.455 264.324 291.746 268.145 292.042C269.035 292.384 269.651 292.999 269.993 293.888C270.211 295.696 270.211 297.474 269.993 299.22C272.039 298.067 273.339 296.358 273.893 294.093C272.857 287.783 272.31 281.426 272.251 275.022C272.478 269.007 272.684 262.992 272.867 256.976C273.277 256.429 273.688 256.429 274.098 256.976C273.851 265.46 273.988 273.936 274.509 282.404C274.64 283.044 274.982 283.523 275.535 283.84C277.83 284.337 279.951 285.226 281.899 286.505C283.58 287.298 284.744 286.82 285.389 285.07C284.441 284.399 283.825 283.51 283.541 282.404C283.015 279.516 283.426 276.781 284.773 274.201C287.014 271.261 288.246 271.534 288.468 275.022C287.608 275.853 286.651 276.537 285.594 277.072C284.583 279.426 285.335 280.93 287.852 281.584C290.629 280.718 291.998 278.804 291.958 275.842C291.581 273.446 291.171 271.054 290.726 268.665C290.54 267.314 291.088 266.562 292.369 266.409C292.336 267.545 292.541 268.639 292.984 269.69C296.246 275.247 298.709 281.126 300.375 287.326C300.648 290.607 300.648 293.888 300.375 297.169C300.264 298.339 299.922 299.432 299.348 300.45C299.009 300.813 298.599 300.95 298.116 300.86C298.345 298.534 298.619 296.21 298.938 293.888C298.346 287.946 296.636 282.341 293.806 277.072C293.384 279.296 292.563 281.346 291.342 283.224C290.124 284.414 288.687 285.234 287.031 285.685C286.456 288.703 284.677 290.412 281.694 290.812C280.905 292.664 279.81 294.305 278.409 295.733C277.401 296.402 276.375 296.47 275.33 295.938C274.225 298.275 272.651 300.257 270.609 301.885C265.36 304.95 260.228 308.162 255.212 311.524C254.199 311.276 253.378 310.729 252.749 309.883C251.399 313.284 248.935 315.334 245.359 316.035C244.305 315.85 243.346 315.44 242.485 314.805C240.871 317.572 238.476 319.349 235.3 320.136C232.597 325.501 229.176 330.354 225.036 334.696C223.134 336.366 220.945 336.913 218.467 336.337C217.322 335.43 216.98 334.268 217.441 332.85C218.653 330.612 220.501 329.245 222.983 328.749C224.942 329.255 225.42 330.349 224.42 332.03C223.901 332.894 223.149 333.304 222.162 333.261C222.162 332.714 222.162 332.167 222.162 331.62C219.818 331.283 219.27 332.035 220.52 333.876C222.006 334.221 223.375 333.947 224.625 333.056C225.515 332.167 226.404 331.278 227.294 330.39C229.33 327.211 231.314 323.999 233.247 320.752C229.5 320.936 225.941 321.893 222.573 323.622C221.795 324.567 220.974 325.456 220.109 326.288C219.448 325.952 219.174 325.405 219.288 324.648ZM275.125 287.736C276.913 288.15 278.556 288.902 280.052 289.992C279.522 290.932 278.838 291.752 277.999 292.452C277.406 292.773 276.859 292.704 276.357 292.247C275.693 290.806 275.282 289.302 275.125 287.736ZM264.45 295.528C267.529 294.981 268.693 296.212 267.94 299.22C267.615 300.075 267.136 300.828 266.503 301.475C264.758 302.449 263.048 303.474 261.371 304.551C260.443 300.814 261.469 297.807 264.45 295.528ZM220.52 311.524C221.415 311.435 222.099 311.777 222.573 312.549C222.367 312.754 222.162 312.959 221.957 313.164C221.107 312.917 220.627 312.37 220.52 311.524Z" fill="black"/>
<path opacity="0.792" fill-rule="evenodd" clip-rule="evenodd" d="M48.0828 274.612C49.8671 274.543 51.6461 274.612 53.4202 274.817C53.6078 274.986 53.7449 275.192 53.8307 275.432C52.6586 276.187 51.3583 276.597 49.9304 276.662C48.2811 276.731 47.6653 276.047 48.0828 274.612Z" fill="black"/>
<path opacity="0.692" fill-rule="evenodd" clip-rule="evenodd" d="M56.2941 283.224C57.8058 283.157 59.3109 283.225 60.8103 283.429C61.3576 283.84 61.3576 284.25 60.8103 284.66C59.4624 285.079 58.094 285.421 56.7047 285.685C54.6592 285.152 54.5225 284.332 56.2941 283.224Z" fill="black"/>
<path opacity="0.794" fill-rule="evenodd" clip-rule="evenodd" d="M219.288 324.648C217.19 329.386 214.658 333.897 211.693 338.182C210.227 340.04 208.379 341.339 206.15 342.078C205.379 342.315 204.626 342.246 203.892 341.873C201.554 343.634 199.364 343.498 197.323 341.463C196.799 336.933 198.783 334.54 203.276 334.286C204.867 335.09 205.209 336.252 204.303 337.772C203.748 338.395 203.132 338.942 202.455 339.413C202.155 338.657 201.881 337.905 201.634 337.157C199.191 337.234 198.917 338.191 200.813 340.028C201.964 340.337 203.059 340.201 204.097 339.618C207.291 336.301 209.685 332.542 211.282 328.339C205.75 329.174 200.208 329.994 194.654 330.8C194.584 330.258 194.721 329.779 195.065 329.364C196.228 328.754 197.323 328.07 198.349 327.314C199.681 322.913 201.254 318.607 203.071 314.394C206.729 307.493 210.698 300.794 214.977 294.298C215.812 292.9 216.839 291.669 218.056 290.607C218.534 291.448 218.465 292.268 217.851 293.068C211.932 301.336 207.074 310.222 203.276 319.726C203.413 319.863 203.55 320 203.687 320.136C205.755 318.077 208.218 317.325 211.077 317.881C212.527 318.508 213.348 319.601 213.54 321.162C213.148 322.903 212.327 324.407 211.077 325.673C212.582 325.832 213.745 325.217 214.567 323.827C214.84 324.101 215.114 324.374 215.388 324.648C216.416 323.725 217.511 322.905 218.672 322.187C219.736 322.804 219.941 323.624 219.288 324.648ZM201.223 327.109C202.082 322.758 204.682 320.639 209.024 320.752C211.105 322.785 210.831 324.562 208.203 326.083C205.939 326.787 203.613 327.129 201.223 327.109ZM216.414 326.288C214.659 330.433 212.469 334.329 209.845 337.977C209.077 338.537 208.256 339.016 207.382 339.413C206.963 339.207 206.894 338.934 207.176 338.592C209.778 335.312 211.968 331.758 213.745 327.929C214.418 327.013 215.308 326.466 216.414 326.288Z" fill="black"/>
<path opacity="0.823" fill-rule="evenodd" clip-rule="evenodd" d="M110.489 294.298C113.62 294.314 116.288 295.408 118.495 297.579C120.389 301.384 119.225 303.777 115.005 304.756C113.505 304.961 112 305.029 110.489 304.961C110.817 306.859 110.269 308.431 108.846 309.678C103.906 312.599 98.5691 314.376 92.8343 315.01C86.3967 315.785 79.9644 315.785 73.5378 315.01C73.1942 314.595 73.0575 314.116 73.1272 313.574C82.9143 314.768 92.494 313.88 101.867 310.908C103.686 310.24 105.26 309.215 106.588 307.832C106.99 306.533 106.784 305.37 105.972 304.346C104.696 303.625 103.328 303.283 101.867 303.321C101.867 302.911 101.867 302.501 101.867 302.09C102.683 301.956 103.504 301.82 104.33 301.68C106.904 302.35 109.504 302.897 112.131 303.321C114.959 303.574 116.122 302.343 115.621 299.63C114.412 297.59 112.633 296.359 110.283 295.938C110.009 296.212 109.736 296.485 109.462 296.759C109.78 300.044 108.549 300.865 105.767 299.22C105.236 297.545 105.715 296.246 107.204 295.323C108.358 295.003 109.453 294.661 110.489 294.298Z" fill="black"/>
<path opacity="0.814" fill-rule="evenodd" clip-rule="evenodd" d="M177 295.528C178.436 295.555 178.641 296.102 177.616 297.169C168.447 305.235 159.825 313.848 151.75 323.007C149.55 325.924 150.303 327.223 154.008 326.904C158.162 320.425 163.089 314.547 168.789 309.268C173.394 305.076 178.116 301.043 182.953 297.169C183.388 297.222 183.73 297.427 183.98 297.784C179.723 301.9 175.344 305.865 170.842 309.678C167.405 313.247 164.12 316.939 160.988 320.752C162.715 320.312 164.494 320.175 166.325 320.341C167.581 320.775 168.608 321.527 169.405 322.597C171.904 320.948 174.573 320.47 177.411 321.162C179.286 322.204 179.902 323.776 179.258 325.878C178.469 327.249 177.443 328.412 176.179 329.364C177.402 329.367 178.634 329.23 179.874 328.954C181.227 328.334 182.596 327.856 183.98 327.519C184.063 328.294 183.79 328.909 183.158 329.364C181.503 330.371 179.725 331.054 177.821 331.415C174.673 331.689 171.526 331.689 168.378 331.415C163.885 330.631 159.369 330.221 154.83 330.185C150.529 337.901 144.166 343.028 135.738 345.565C134.259 345.474 134.054 344.995 135.122 344.129C140.154 342.607 144.328 339.804 147.645 335.721C149.218 333.602 150.792 331.483 152.366 329.364C150.998 329.228 149.629 329.091 148.261 328.954C147.432 328.193 146.748 327.304 146.208 326.288C143.205 327.622 140.399 327.348 137.791 325.468C137.377 324.843 137.172 324.159 137.175 323.417C134.893 324.11 132.567 324.315 130.196 324.033C128.878 323.54 127.783 322.72 126.911 321.572C124.924 321.756 122.94 321.551 120.958 320.957C116.268 322.863 111.409 324.093 106.383 324.648C104.516 324.489 102.737 324.011 101.046 323.212C98.7153 321.044 98.9891 319.266 101.867 317.881C104.27 317.303 106.392 317.781 108.23 319.316C108.803 321.276 108.05 322.233 105.972 322.187C104.21 322.146 103.936 321.531 105.151 320.341C104.664 319.279 103.911 319.074 102.893 319.726C102.679 321.406 103.432 322.431 105.151 322.802C110.018 322.847 114.671 321.822 119.11 319.726C119.658 318.906 119.658 318.086 119.11 317.265C115.881 318.166 112.938 317.619 110.283 315.625C108.694 313.188 109.036 311.07 111.31 309.268C114.811 307.333 118.233 307.401 121.574 309.473C122.243 310.928 121.764 311.749 120.137 311.934C118.63 311.105 117.125 310.285 115.621 309.473C113.475 310.341 112.79 311.845 113.568 313.984C115.456 316.066 117.714 316.544 120.342 315.42C122.091 314.627 123.733 313.669 125.269 312.549C126.486 311.934 127.718 311.866 128.964 312.344C133.291 313.855 137.945 315.427 142.923 317.06C146.152 318.009 149.436 318.419 152.777 318.291C160.437 310.157 168.511 302.57 177 295.528ZM125.269 314.805C127.169 314.647 128.948 314.989 130.606 315.83C128.908 316.501 127.676 317.663 126.911 319.316C126.122 319.784 125.301 319.853 124.448 319.521C123.664 319.354 123.253 318.875 123.216 318.086C123.693 316.858 124.378 315.765 125.269 314.805ZM132.249 316.855C134.999 316.951 137.599 317.634 140.049 318.906C137.972 321.312 135.372 322.337 132.249 321.982C130.092 320.255 130.092 318.546 132.249 316.855ZM142.102 319.726C144.983 319.978 147.857 320.32 150.724 320.752C148.939 322.973 146.681 324.409 143.95 325.058C140.582 324.333 139.966 322.555 142.102 319.726ZM161.399 322.597C163.681 322.231 165.186 323.12 165.915 325.263C165.675 326.288 165.128 327.108 164.273 327.724C161.924 328.047 159.598 327.978 157.293 327.519C157.156 327.382 157.019 327.245 156.882 327.109C157.997 325.174 159.503 323.671 161.399 322.597ZM171.252 323.417C172.68 323.288 174.049 323.493 175.358 324.033C176.6 326.21 176.053 327.851 173.715 328.954C171.236 329.189 168.773 329.052 166.325 328.544C167.931 326.748 169.573 325.039 171.252 323.417Z" fill="black"/>
<path opacity="0.79" fill-rule="evenodd" clip-rule="evenodd" d="M267.324 307.012C269.222 307.689 270.864 308.783 272.251 310.293C271.488 311.526 270.462 311.799 269.172 311.113C269.052 311.862 269.12 312.614 269.377 313.369C269.211 314.903 268.39 315.45 266.914 315.01C266.663 314.211 266.321 313.459 265.887 312.754C265.044 315.011 264.018 315.216 262.808 313.369C263.501 311.778 264.254 310.206 265.066 308.653C265.296 308.438 265.57 308.302 265.887 308.242C266.321 308.705 266.8 308.91 267.324 308.858C266.82 308.247 266.82 307.631 267.324 307.012Z" fill="black"/>
<path opacity="0.81" fill-rule="evenodd" clip-rule="evenodd" d="M250.491 316.855C251.765 317.644 252.997 318.533 254.186 319.521C255.271 320.786 254.929 321.538 253.16 321.777C252.457 321.802 251.91 321.528 251.517 320.957C251.488 321.616 251.557 322.3 251.723 323.007C251.595 324.849 250.705 325.396 249.054 324.648C248.917 323.828 248.78 323.007 248.643 322.187C248.162 323.501 247.273 324.116 245.975 324.033C245.542 323.463 245.474 322.848 245.769 322.187C246.538 320.638 247.496 319.271 248.643 318.086C249.033 318.3 249.376 318.573 249.67 318.906C250.007 318.234 250.281 317.55 250.491 316.855Z" fill="black"/>
<path opacity="0.774" fill-rule="evenodd" clip-rule="evenodd" d="M193.012 320.957C195.317 320.374 196.206 321.194 195.681 323.417C192.98 324.479 192.091 323.659 193.012 320.957Z" fill="black"/>
<path opacity="0.797" fill-rule="evenodd" clip-rule="evenodd" d="M161.399 333.671C162.083 333.671 162.767 333.671 163.451 333.671C163.39 334.102 163.458 334.512 163.657 334.901C164.167 333.944 164.851 333.671 165.709 334.081C165.9 335.677 166.379 337.181 167.146 338.592C166.766 339.595 166.081 339.937 165.094 339.618C164.278 339.077 163.799 338.325 163.657 337.362C163.359 338.366 162.948 339.324 162.425 340.233C159.702 340.95 159.086 340.061 160.577 337.567C159.646 337.72 158.688 337.72 157.703 337.567C157.489 337.337 157.352 337.063 157.293 336.747C158.577 335.625 159.946 334.6 161.399 333.671Z" fill="black"/>
<path d="M180.852 101.459C180.628 101.598 178.577 104.411 176.287 107.716C173.998 111.02 171.987 113.812 171.823 113.914C171.659 114.016 170.036 113.585 168.221 112.959C166.671 112.424 165.609 112.14 164.971 112.14C163.91 112.14 164.026 112.928 165.03 114.659C166.046 116.412 166.746 119.278 167.191 123.496L167.384 125.322H157.241C141.235 125.321 132.856 124.223 130.463 121.829C129.785 121.151 128.978 120.598 128.67 120.598C128.362 120.598 127.889 121.495 127.615 122.583C126.162 128.352 121.82 133.598 114.615 138.305C112.075 139.964 110 141.573 110 141.873C110 143.311 113.496 142.916 119.959 140.751C124.931 139.085 129.996 136.448 132.54 134.209C135.578 131.535 137.187 131.244 150.422 131.001C156.135 130.909 161.83 130.811 167.509 131.395C167.432 132.442 167.336 133.489 167.25 134.536L164.896 134.644C157.796 134.968 150.57 136.535 146.352 138.665C143.075 140.319 139.823 143.351 138.369 146.111C137.353 148.041 137.241 148.726 137.239 152.762C137.235 158.117 137.995 161.02 140.338 164.505C143.716 169.531 148.815 171.969 156.956 172.445L161.68 172.722L155.674 178.727C145.037 189.374 137.882 194.435 129.943 196.92C127.681 197.628 125.109 197.955 119.507 198.252C115.417 198.468 111.894 198.761 111.675 198.897C111.027 199.297 111.687 199.935 112.747 199.935C113.676 199.935 118.536 201.784 126.727 205.246C129.082 206.241 130.719 206.723 132.226 206.723C133.501 206.723 134.682 206.378 136.125 205.706C141.874 203.03 146.596 198.833 156.11 187.932C159.572 183.956 163.06 180.004 166.647 176.139L166.387 206.159C166.109 238.257 165.959 240.747 163.807 248.784C163.214 251 162.055 254.377 161.227 256.289C159.708 259.798 157.01 264.263 156.411 264.263C156.233 264.263 156.067 263.501 156.043 262.562C155.983 260.286 155.038 258.963 152.341 257.386C150.86 256.521 150.069 256.22 149.015 256.22C148.776 256.22 148.523 256.236 148.245 256.264C146.012 256.488 143.577 258.276 142.465 260.51C142.096 261.252 141.92 261.685 141.92 262.128C141.92 262.517 142.055 262.914 142.315 263.534C143.051 265.297 145.208 267.036 148.035 268.141C149.509 268.717 151.088 269.002 152.665 269.002C154.633 269.002 156.598 268.558 158.355 267.68C164.555 264.582 170.524 255.368 173.297 244.604C174.099 241.286 175.436 238.238 176.891 235.181L179.789 236.396C183.016 237.75 186.349 238.432 189.599 238.432C192.202 238.432 194.752 237.995 197.152 237.116C200.45 235.909 203.605 233.948 203.375 233.255C203.267 232.928 201.66 232.648 198.953 232.476C189.545 231.876 183.541 228.948 180.593 223.53C179.019 220.639 178.646 216.575 178.633 202.297C178.618 186.686 179.045 176.348 179.705 176.348C180.627 176.348 190.652 187.495 198.676 197.431C202.233 201.835 204.774 203.991 208.728 205.983C213.806 208.541 217.856 209.528 223.427 209.559C228.353 209.587 232.222 208.841 232.222 207.859C232.222 207.522 231.354 207.196 229.969 207.013C223.466 206.154 213.137 200.029 200.737 189.683C195.031 184.922 185.815 176.314 184.605 174.615L183.717 173.375L187.092 173.635C195.514 174.284 202.962 171.109 206.273 165.46C209.553 159.863 210.182 151.943 207.748 146.915C204.815 140.856 196.303 136.813 185.049 136.127L180.115 135.826C180.036 134.468 179.943 133.112 179.856 131.755H186.339C197.811 131.755 211.574 133.089 214.021 134.443C214.541 134.731 216.229 136.037 217.774 137.342C219.318 138.646 222.285 140.728 224.366 141.973C228.78 144.615 240.475 150.448 242.19 150.86C244.415 151.395 243.406 150.25 239.174 147.46C234.575 144.427 230.134 140.048 227.431 135.876C226.497 134.433 224.591 130.892 223.201 128.002C220.516 122.422 219.879 121.843 218.285 123.605C216.232 125.873 205.696 126.888 191.54 126.185C187.776 125.968 184.008 125.839 180.241 125.749L180.509 115.773C180.658 110.289 180.888 104.767 181.02 103.503C181.167 102.094 181.103 101.304 180.852 101.459ZM167.04 139.812V166.507L165.859 166.967C164.231 167.594 157.312 167.836 155.339 167.336C149.363 165.823 146.551 161.128 147.005 153.432C147.397 146.783 149.44 143.103 153.831 141.153C155.731 140.309 156.995 140.12 161.571 139.98L167.04 139.812ZM180.006 140.968L185.635 141.211C191.654 141.47 192.679 141.731 194.849 143.557C198.459 146.594 200.159 154.48 198.542 160.719C197.648 164.172 196.305 166.061 193.777 167.436C189.804 169.599 181.135 169.223 179.856 166.833C179.168 157.435 179.532 149.975 180.006 140.968Z" fill="black"/>
<path d="M170.588 105.913C168.696 103.856 167.898 101.996 167.896 99.6379C167.893 95.5233 169.949 93.3968 174.346 92.9659C177.185 92.6877 179.031 91.4969 182.316 87.8225C183.997 85.9433 185.071 85 185.561 85C186.119 85 185.922 86.2199 185.005 88.6707C183.94 91.5154 181.968 93.9099 180.016 94.7252C175.548 98.7046 174.383 101.881 171.595 106.878C171.529 106.878 171.076 106.444 170.588 105.913Z" fill="black"/>
<path d="M149.257 222.241C149.257 220.665 147.978 219.387 146.403 219.387C144.827 219.387 143.548 220.665 143.548 222.241C143.548 223.817 144.827 225.095 146.403 225.095C147.978 225.095 149.257 223.817 149.257 222.241ZM153.715 226.624C153.715 225.048 152.437 223.77 150.861 223.77C149.285 223.77 148.007 225.048 148.007 226.624C148.007 228.2 149.285 229.478 150.861 229.478C152.437 229.478 153.715 228.2 153.715 226.624ZM144.589 226.312C144.589 224.737 143.311 223.458 141.735 223.458C140.159 223.458 138.881 224.737 138.881 226.312C138.881 227.888 140.159 229.167 141.735 229.167C143.311 229.167 144.589 227.888 144.589 226.312ZM149.16 230.835C149.16 229.26 147.882 227.981 146.306 227.981C144.73 227.981 143.452 229.26 143.452 230.835C143.452 232.411 144.73 233.69 146.306 233.69C147.882 233.69 149.16 232.411 149.16 230.835Z" fill="black"/>
<path d="M200.723 111.172C200.723 109.596 199.445 108.318 197.869 108.318C196.293 108.318 195.015 109.596 195.015 111.172C195.015 112.748 196.293 114.026 197.869 114.026C199.445 114.026 200.723 112.748 200.723 111.172ZM205.181 115.555C205.181 113.979 203.903 112.701 202.327 112.701C200.751 112.701 199.473 113.979 199.473 115.555C199.473 117.131 200.751 118.409 202.327 118.409C203.903 118.409 205.181 117.131 205.181 115.555ZM196.055 115.243C196.055 113.667 194.777 112.389 193.201 112.389C191.625 112.389 190.347 113.667 190.347 115.243C190.347 116.819 191.625 118.097 193.201 118.097C194.777 118.097 196.055 116.819 196.055 115.243ZM200.626 119.766C200.626 118.19 199.348 116.912 197.772 116.912C196.196 116.912 194.918 118.19 194.918 119.766C194.918 121.342 196.196 122.62 197.772 122.62C199.348 122.62 200.626 121.342 200.626 119.766Z" fill="black"/>
</svg>
