<svg width="448" height="143" viewBox="0 0 448 143" fill="none" xmlns="http://www.w3.org/2000/svg">
<path d="M153.963 72.1119C150.677 73.7246 147.915 74.1278 146.227 74.2324C143.644 74.3966 141.478 73.9934 138.656 73.4708C135.744 72.9332 134.505 72.4255 129.95 71.2009C128.113 70.7082 125.709 70.081 122.857 69.4239C122.707 69.3791 122.677 69.185 122.827 69.1103C135.401 63.1072 142.942 55.9692 141.687 51.9074C140.866 49.2493 135.968 46.9048 133.041 45.979C132.578 45.8296 130.517 45.2025 127.695 45.0979C122.095 44.9038 117.899 46.9646 115.584 48.1293C112.851 49.5032 110.208 50.8472 108.013 53.8039C107.983 53.8487 107.938 53.8935 107.908 53.9532C106.534 54.5356 105.146 55.118 103.772 55.7004C102.637 56.1783 101.815 57.2087 101.591 58.4182C101.203 60.5985 100.875 62.8982 100.621 65.3173C100.322 65.5114 100.009 65.7205 99.68 65.9296C97.664 67.169 94.3189 69.2447 89.5552 69.5434C89.5552 69.5434 83.8955 69.8868 79.2512 67.0645C77.7877 66.1685 77.0112 65.3024 76.2197 64.4213C75.3536 63.4507 74.368 62.3008 74.7115 61.3899C74.8459 61.0315 75.1296 60.8523 75.4731 60.6283C76.4437 60.0161 77.5786 59.2993 78.8629 58.5377C78.8629 58.6572 83.1488 55.7004 82.9696 55.7004C83.3877 55.3569 84.0299 54.7447 84.5525 53.8188C84.7317 53.4903 85.2693 52.5197 85.3141 51.549C85.4336 48.3832 80.2667 46.1134 79.6544 45.8446C78.1163 45.1726 77.0261 45.1129 76.6229 45.1129C75.3386 45.083 74.4128 45.4264 73.2181 45.8744C71.4709 46.5315 69.9328 47.099 68.6784 48.5176C68.0661 49.2194 68.1109 49.4434 66.7669 51.9074C66.0352 53.2514 65.3781 54.3266 64.9451 55.0434C63.84 50.6829 61.7045 47.2483 59.2256 47.0094C58.0459 46.8899 55.5669 47.6216 55.0592 47.7709C54.1483 48.0248 53.2672 48.3235 52.7893 48.5325C50.1611 49.6226 48.5632 52.3255 47.488 54.2071C46.0693 56.7159 44.352 59.9563 42.5451 63.9136C42.3808 64.2869 41.8133 64.1675 41.8133 63.7643C41.8133 63.167 41.8133 62.5099 41.8133 61.7782C41.7685 54.3863 41.4699 51.3698 41.3205 46.8451C40.9323 35.6005 40.7829 30.0454 43.7099 27.7307C45.9648 25.9537 47.8763 24.4156 49.3845 23.1911C50.3253 22.4295 51.5051 21.4589 51.2811 20.9213C51.1467 20.6226 50.624 20.5778 50.1461 20.5479C47.6224 20.3538 44.4117 22.2503 44.0981 22.4444C41.9925 23.7137 40.4544 24.6396 39.1851 26.6108C38.2443 28.0593 37.856 29.463 37.6768 30.3888C36.1685 31.6731 33.6149 33.9578 30.7477 37.0938C20.5035 48.3235 13.664 62.4502 16.8597 66.7061C17.8901 68.0799 19.5029 68.9759 19.5029 68.9759C21.4144 70.0511 23.2661 70.0959 24.416 70.1108C29.4933 70.1855 35.2875 67.3631 36.9749 66.4821C37.1093 66.4074 37.2885 66.512 37.2885 66.6762C37.4528 74.6505 36.2581 79.1453 35.0037 81.8333C34.5707 82.7741 33.0325 85.8652 32.7339 90.151C32.6741 90.9126 32.6741 91.5995 32.6891 92.1819C32.6891 92.6747 33.2416 92.9734 33.6747 92.7046C34.6005 92.3313 35.5115 91.943 36.3029 91.3457C37.3483 91.0172 38.1248 90.166 38.3488 89.1206C38.4832 88.5383 38.6325 87.8663 38.7819 87.1196C39.6928 82.8936 39.9467 81.1464 40.2901 79.5485C40.8576 76.9353 41.8432 74.6505 43.8144 70.0959C45.7557 65.601 46.3083 64.7797 47.3685 62.6144C48.0256 61.2854 48.2496 60.703 48.6528 59.8369C50.3402 56.1932 52.3861 53.0722 52.3861 53.0722C52.8042 52.4749 53.3419 51.7282 54.0139 50.877C54.5365 50.22 55.5371 50.2349 56.0448 50.9069C56.7467 51.8327 57.4336 52.9378 58.0608 54.2071C59.4197 57.0295 59.8379 59.6278 59.9573 61.3899C60.0171 62.2859 60.0171 62.928 60.0021 63.167C59.9573 64.5856 59.7184 65.6757 59.5691 66.3178C58.6581 70.1706 57.5829 71.3652 57.2992 74.2622C57.2245 74.9342 57.2245 75.5465 57.2395 76.0393C57.2544 76.5022 57.7024 76.8158 58.1355 76.6814C59.3899 76.2931 61.4656 75.4718 62.8395 73.5902C65.4229 70.0362 63.5115 68.1695 65.9904 62.5398C66.2293 62.0022 66.0949 62.3755 68.6336 57.2385C69.6192 55.2673 69.9477 54.5655 70.5301 53.4604C71.2021 52.1613 71.8144 51.0264 72.3221 50.0856C72.8 49.2045 73.92 48.8909 74.7861 49.3986C75.1147 49.5928 75.4581 49.8168 75.8165 50.0557C79.6096 52.669 79.5797 53.4156 79.5947 54.222C79.6395 55.5361 78.2507 56.5367 76.1899 58.0001C74.1141 59.4785 73.0389 59.5979 70.8885 61.4048C69.2757 62.7638 69.0667 63.3909 68.992 63.6747C68.5291 65.5114 70.112 67.3333 70.8885 68.2143C71.2619 68.6474 72.9045 70.4543 76.1899 71.6191C79.2363 72.6943 81.8048 72.5599 85.2693 72.3807C87.136 72.2761 88.7787 72.1865 90.944 71.6191C91.8549 71.3801 94.6026 70.6036 97.7536 68.5877C98.7392 67.9605 99.6501 67.2735 100.457 66.6165C100.247 68.7071 100.098 70.8874 100.023 73.1273C99.9787 74.1876 99.9637 75.2329 99.9637 76.2483C99.9637 77.6371 101.696 78.2643 102.577 77.1891L103.712 75.8003C104.489 74.8446 104.966 73.6649 105.056 72.4255C105.19 70.6186 105.399 68.7071 105.698 66.7061C106.012 64.6901 106.4 62.7936 106.833 60.9867C107.356 60.6283 107.878 60.255 108.401 59.8966C108.954 59.5083 109.342 58.911 109.446 58.254C109.446 58.1793 109.476 58.0897 109.491 58.015C110.148 54.5356 113.06 52.445 114.793 51.2055C116.166 50.22 118.167 48.7864 121.229 48.1741C127.486 46.9347 132.175 50.3544 133.34 51.2055C135.371 52.6839 135.834 53.8188 135.983 54.6103C136.207 55.8199 135.819 56.9697 135.221 58.015C132.638 62.5995 125.709 66.1685 120.841 68.9909C119.497 69.7674 117.734 70.8276 115.674 72.1567C114.643 72.8287 115.166 74.4265 116.39 74.3369C117.421 74.2622 118.526 74.2473 119.721 74.2772C124.439 74.4414 125.186 75.4718 133.265 76.9353C133.265 76.9353 141.21 78.3688 146.959 77.3086C148.826 76.9651 150.364 76.1737 150.364 76.1737C150.871 75.9198 151.558 75.5166 152.634 74.6654C153.171 74.2324 153.813 73.6948 154.53 73.0079C154.948 72.6047 154.455 71.9177 153.933 72.1716L153.963 72.1119ZM36.4523 63.6896C36.2133 64.0032 35.9445 64.3168 35.6309 64.6603C35.1083 65.2277 34.3168 66.1088 33.4955 66.6762C30.4789 68.7519 26.1483 67.1989 25.6555 67.0197C24.6251 66.6314 23.3557 66.1536 22.5195 65.168C18.6368 60.5537 25.9989 47.5171 31.5989 40.1999C33.6448 37.5268 35.5264 35.5258 36.6763 34.361C36.7509 34.2864 36.8704 34.3461 36.8704 34.4506C36.8256 35.1674 36.7659 36.153 36.7211 37.3178C36.6613 38.6319 36.3776 44.0825 36.7659 53.1767C36.8853 55.9095 37.0496 58.6572 37.184 61.3899C37.2288 62.2262 36.96 63.0624 36.4373 63.7195L36.4523 63.6896Z" fill="black"/>
<path d="M254.539 38.7514C255.046 38.6468 255.255 39.3785 254.763 39.5577C253.852 39.8863 252.851 40.2297 251.776 40.5583C241.457 43.739 232.378 43.6942 221.894 43.5897C217.355 43.5449 213.965 43.3358 211.68 43.2163C177.094 41.2302 158.965 38.9604 156.068 44.7246C155.889 45.083 154.799 47.2483 155.695 48.8909C156.576 50.5186 159.025 50.9069 160.608 51.1607C161.594 51.3101 162.475 51.3399 163.236 51.3101C163.759 51.2951 164.028 51.9522 163.625 52.2957C162.938 52.8781 162.057 53.4306 160.981 53.8188C156.382 55.4465 150.304 52.9228 149.632 49.6525C149.079 46.9944 152.201 44.2766 153.41 43.2163C160.444 37.0938 171.405 37.1834 196.538 39.05C196.538 39.05 219.132 40.7375 239.665 40.5583C244.041 40.5284 248.371 39.7967 248.371 39.7967C250.611 39.498 252.672 39.1247 254.539 38.7514Z" fill="black"/>
<path d="M44.1578 91.9579C43.5157 92.5254 43.5904 93.5408 44.3221 94.0038C51.9381 98.6927 54.6112 99.3647 55.4474 98.8271C55.6864 98.6778 56.4032 98.0058 57.7173 97.3189C58.449 96.9306 58.7626 96.856 58.8522 96.5573C59.0613 95.8555 57.5829 94.8549 56.209 93.9142C50.4896 90.0017 50.5344 89.8374 49.7728 89.7478C47.4581 89.494 45.4272 90.8379 44.1578 91.9579Z" fill="black"/>
<path d="M82.0288 93.287C83.8656 94.1232 85.7024 94.9595 87.5541 95.7957C88.0768 96.0347 88.6592 96.0645 89.1968 95.8853C90.272 95.5269 91.3621 95.1685 92.4373 94.8101C93.0944 94.5861 93.2288 93.7051 92.6613 93.3019C91.168 92.2267 89.6747 91.1366 88.1664 90.0614C87.5691 89.6284 86.7776 89.5388 86.1056 89.8225C84.7467 90.3899 83.3877 90.9723 82.0288 91.5398C80.6699 92.1073 81.2373 92.9435 81.9989 93.3019L82.0288 93.287Z" fill="black"/>
<path d="M149.244 93.6454C148.796 93.8992 148.841 94.5563 149.303 94.7504C151.349 95.5867 153.485 96.5573 155.695 97.6773C156.471 98.0656 157.218 98.4687 157.95 98.8719C159.159 99.5439 160.623 99.6037 161.877 99.0213C162.534 98.7226 163.191 98.409 163.849 98.1104C164.297 97.9013 164.386 97.304 164.028 96.9754C163.057 96.0944 161.937 95.1685 160.623 94.2726C158.935 93.1078 157.308 92.2267 155.829 91.5697C154.829 91.1067 153.679 91.1665 152.723 91.7041C151.558 92.3611 150.409 93.0032 149.244 93.6603V93.6454Z" fill="black"/>
<path d="M413.519 35.4959C410.353 33.3754 406.082 30.7323 400.84 28.0742C393.777 24.4903 388.132 21.6231 380.038 20.1298C378.545 19.861 371.198 18.5768 361.506 19.7565C359.386 20.0103 351.934 21.0258 340.704 25.8044C324.158 32.8379 313.301 42.1412 311.196 43.963C308.776 46.0686 305.387 49.4584 301.907 53.0871C300.996 53.2962 300.25 53.6247 299.981 53.7292C299.279 54.0428 298.413 54.4162 297.95 55.3121C297.562 56.0439 297.591 56.8353 297.726 57.4924C291.797 63.8389 286.6 69.6778 286.6 69.6778C285.884 70.4244 284.002 72.3956 283.196 71.9476C282.927 71.7983 282.837 71.4249 282.822 70.4394C282.793 68.7818 282.882 67.3781 283.584 65.1381C284.137 63.3461 284.988 62.1664 285.854 60.9718C288.154 57.806 289.333 58.0001 292.365 54.6103C294.62 52.0717 295.68 50.0408 296.068 49.2493C296.815 47.6963 297.412 46.4568 297.576 44.7097C297.8 42.3801 297.293 38.617 295.307 37.9002C293.559 37.258 291.409 39.2591 289.632 40.9316C284.928 45.3219 283.076 51.0114 281.986 54.3564C281.538 55.7452 281.329 56.4471 281.165 57.119C280.732 58.7916 280.343 60.4939 279.985 62.2112C279.881 62.719 279.582 63.1819 279.164 63.4955C278.253 64.1525 277.058 64.9888 275.654 65.8997C271.637 68.4831 269.636 69.7823 266.948 70.4394C264.947 70.9321 261.513 71.7684 258.63 70.066C255.539 68.2442 254.031 64.0779 254.434 59.5233C254.464 59.2545 254.628 59.0305 254.882 58.9409C258.272 57.6268 261.109 56.4023 263.319 55.4017C263.529 55.3121 267.546 53.4007 272.638 50.3992C275.356 48.8013 275.983 48.2936 276.416 47.3677C277.79 44.411 275.624 40.1999 273.011 37.9151C272.638 37.5866 269.502 34.9285 265.067 35.2719C260.333 35.6303 257.361 39.1545 255.226 41.7081C251.716 45.8894 250.477 50.4141 249.551 53.8188C248.924 56.1185 248.595 58.0748 248.416 59.4785C248.416 59.4785 248.401 59.4785 248.401 59.4934C245.459 60.1953 242.906 60.6731 240.845 61.0016C234.871 61.9424 230.242 62.0918 228.361 62.1366C227.659 62.1515 227.017 62.1515 226.449 62.1515C225.613 62.1515 224.791 61.9126 224.105 61.4347C223.895 61.2854 223.671 61.136 223.433 61.0016C218.295 58.0897 211.292 62.271 208.828 64.3616C208.186 64.8992 207.588 65.5413 207.095 66.4224C206.08 68.289 206.349 70.4244 206.409 70.8276C206.409 70.8276 206.409 70.8276 206.394 70.8425C204.407 71.3055 201.719 71.7983 198.509 72.0372C195.149 72.2761 192.7 72.1268 191.042 72.0073C184.83 71.5892 182.948 70.4692 182.037 69.8271C181.216 69.2447 180.514 68.7519 179.932 67.8111C177.453 63.8389 180.902 58.0001 181.828 56.462C182.769 54.8791 183.934 52.9527 186.368 51.549C188.041 50.5784 189.668 50.22 190.848 50.1005C191.341 50.0408 191.804 49.8317 192.147 49.4733C192.341 49.2792 192.55 49.085 192.804 48.8909C193.506 48.3683 194.208 48.0696 194.775 47.9053C194.865 47.8755 194.85 47.7411 194.746 47.7411C193.222 47.756 191.251 47.9203 189.011 48.5027C188.444 48.652 185.815 49.3538 183.337 50.7725C177.289 54.2519 171.405 62.495 173.495 68.9311C173.555 69.1103 173.929 70.2154 174.63 71.2009C179.857 78.4286 200.032 73.65 205.423 72.2164C205.707 72.1417 205.99 72.1268 206.274 72.1716C206.379 72.1865 206.782 72.2612 207.2 72.5748C207.812 73.0228 207.797 73.5006 208.29 74.2174C208.29 74.2174 208.589 74.6505 209.425 75.3523C210.127 75.9497 213.457 77.9507 219.639 77.2488C221.596 77.0248 228.122 76.2782 229.092 73.0825C229.495 71.7833 229.092 70.4394 229.092 70.4394C228.734 69.7823 228.256 68.9908 227.584 68.1695C227.091 67.5573 226.583 67.0645 226.121 66.6463C225.897 66.4522 225.911 66.0938 226.165 65.9296C226.359 65.7952 226.583 65.6608 226.837 65.5264C228.48 64.6602 230.093 64.7499 230.615 64.7648C234.991 64.9141 241.696 63.0773 243.861 62.495C244.862 62.2262 246.445 61.7483 248.356 61.0016C248.371 61.0016 248.386 61.0016 248.386 61.0166C248.282 61.8976 247.58 69.1103 252.179 72.3359C254.255 73.7993 256.525 73.8142 258.989 73.8441C264.021 73.9038 267.874 72.1567 271.473 70.4394C273.444 69.5135 276.102 68.065 279.044 65.8997C278.447 67.617 276.237 74.3668 278.671 76.1139C279.388 76.6217 280.254 76.5321 280.567 76.4873C284.555 76.0393 292.23 68.1397 298.786 60.8672C300.324 65.4965 302.116 69.4538 306.298 71.2009C307.373 71.6489 308.254 71.7983 309.538 72.0223C311.226 72.3209 314.153 72.7988 317.647 71.9476C319.155 71.5743 320.469 71.0367 321.574 70.4543C322.172 70.1258 321.873 69.2148 321.186 69.3343C318.02 69.8868 313.48 70.081 310.822 67.4079C309.165 65.7504 308.329 63.0624 307.791 61.36C306.357 56.7905 307.268 54.5804 305.521 53.4156C305.491 53.3858 305.461 53.3708 305.416 53.3559C306.148 52.5346 306.805 51.7879 307.403 51.1458C317.378 40.3044 327.533 34.5701 333.133 31.4789C341.227 26.999 351.874 21.2647 365.672 21.638C372.781 21.8322 378.978 23.5943 380.053 23.9079C384.085 25.0727 386.504 26.2673 396.704 31.0907C399.302 32.3301 403.006 34.0773 407.531 36.2127C409.338 37.0639 411.368 37.258 413.31 36.7802C413.668 36.6906 413.862 36.3919 413.862 36.0783C413.862 35.7647 413.758 35.6303 413.549 35.481L413.519 35.4959ZM256.704 48.1293C258.197 44.2766 260.288 41.4094 262.005 39.4681C262.916 38.4527 264.41 38.154 265.634 38.7812C266.724 39.3337 267.979 40.1401 269.188 41.3198C270.831 42.9326 271.802 44.6649 272.369 46.0238C272.787 47.0243 272.474 48.1741 271.607 48.8312C269.323 50.5933 266.5 52.4599 263.125 54.1772C260.258 55.6407 257.57 56.686 255.181 57.4625C254.987 57.5222 254.807 57.3729 254.822 57.1788C254.912 54.894 255.315 51.6834 256.704 48.1293ZM212.083 68.2293C212.083 68.1994 212.068 68.1845 212.053 68.1695C211.755 67.3781 212.083 66.3029 212.949 65.4069C213.502 64.8245 214.547 65.0037 215.234 65.4517C215.607 65.6906 215.846 66.0192 215.981 66.3178C216.16 66.6912 216.055 67.1541 215.727 67.4079C215.159 67.841 214.592 68.289 214.025 68.7221C213.367 69.2298 212.397 68.9908 212.068 68.2293H212.083ZM224.657 74.7998C222.97 75.2179 219.729 75.6361 216.608 73.859C215.055 72.963 214.01 71.8132 213.353 70.9023C213.024 70.4543 213.143 69.8122 213.606 69.4986C214.771 68.722 216.951 67.6021 219.251 68.1845C221.417 68.737 222.91 70.6036 224.358 72.4404C224.657 72.8137 224.911 73.1721 225.135 73.5006C225.463 73.9785 225.225 74.6654 224.642 74.7998H224.657Z" fill="black"/>
<path d="M328.668 63.6149C326.995 64.0928 325.905 65.7354 326.174 67.4677C326.771 71.2905 328.369 74.0681 330.46 74.6206C331.356 74.8595 332.341 74.6803 332.73 74.6206C334.686 74.2921 336.105 73.2468 337.015 72.3657C337.374 72.0223 337.105 71.4249 336.612 71.4399C335.955 71.4399 335.209 71.3204 334.611 70.8425C333.626 70.0511 333.566 68.722 333.476 66.6762C333.446 66.049 333.446 65.2576 333.521 64.3317C333.611 63.3013 332.655 62.48 331.654 62.7637L328.638 63.6299L328.668 63.6149Z" fill="black"/>
<path d="M401.602 73.4708C396.958 73.3364 394.598 73.2319 392.896 71.5743C392.478 71.1711 391.552 70.2751 391.388 68.9311C391.059 66.4074 393.702 64.72 392.896 62.8832C392.612 62.2262 392.03 61.8976 391.761 61.7483C391.149 61.4049 389.984 61.0315 387.221 62.1216C386.654 62.3456 385.22 62.9579 380.651 66.3178C379.426 67.2288 378.545 67.9157 377.007 68.9311C375.529 69.9018 374.782 70.3946 373.781 70.7978C372.796 71.186 369.928 72.3359 368.689 71.201C367.883 70.4692 368.286 69.2447 368.316 67.0346C368.331 65.6757 368.211 63.8987 367.659 61.808C367.106 59.7174 366.524 60.3595 365.628 60.5537C364.612 60.7627 363.597 60.9867 362.581 61.1958C361.237 61.4795 360.282 62.6742 360.282 64.048C360.282 66.5717 359.236 68.9311 357.355 70.4394C355.443 71.9924 352.113 73.0975 349.41 71.5743C348.305 70.9471 347.603 70.0511 347.17 69.3343C346.961 68.9759 347.17 68.513 347.588 68.4533C348.708 68.2741 350.157 67.9007 351.695 67.0496C352.845 66.4074 353.786 65.8848 354.338 64.7797C355.234 63.0176 354.876 60.3595 353.203 59.1052C351.501 57.8358 349.231 58.6422 347.902 59.1052C343.362 60.7179 341.839 65.3621 341.764 65.5712C341.481 66.4821 340.301 70.2154 342.227 72.7241C345.064 76.4425 352.546 74.6804 356.22 73.0975C358.251 72.2313 359.834 71.1114 360.983 70.1407C362.133 69.1701 361.805 70.0959 361.82 70.514C361.82 71.5295 362.044 72.9183 363.044 73.8441C363.477 74.2473 364.553 75.0388 367.957 74.6057C374.125 73.8142 379.546 70.1258 381.203 68.9311C382.935 67.6917 384.757 66.1834 385.37 66.6613C385.982 67.1541 384.608 69.0506 385.444 71.4399C385.862 72.6345 386.639 73.3513 386.893 73.5753C388.326 74.8745 390.133 75.0238 391.358 75.0985C395.076 75.3225 398.81 75.203 401.214 75.0985C402.214 75.0537 403.185 74.6804 403.962 74.0532H403.976C404.2 73.859 404.066 73.5156 403.797 73.5156C403.2 73.5156 402.468 73.5156 401.632 73.5006L401.602 73.4708ZM348.947 68.0501C348.947 68.0501 348.962 68.0501 348.962 68.0351C348.962 68.0351 348.992 68.0202 349.007 68.0053C348.992 68.0202 348.962 68.0351 348.947 68.0501ZM347.499 66.288C347.125 66.1088 347.215 65.0784 347.499 64.3915C347.543 64.272 348.006 63.2118 348.634 63.2566C348.992 63.2864 349.306 63.6597 349.395 64.0181C349.664 65.0933 348.036 66.5418 347.499 66.288Z" fill="black"/>
<path d="M333.118 52.669C333.178 53.5948 335.746 54.2668 337.658 54.1772C338.106 54.1623 340.42 54.0578 340.689 53.0423C340.898 52.2509 339.808 51.2055 338.792 50.7725C336.403 49.757 333.043 51.5639 333.118 52.669Z" fill="black"/>
<path d="M426.615 75.2478C425.197 75.1881 423.793 75.1134 422.374 75.0537C421.747 75.0238 421.419 74.307 421.807 73.8142C422.195 73.3214 421.822 73.7844 421.837 73.7844C422.897 72.4105 424.599 71.6937 426.317 71.8879L431.17 72.4254C431.991 72.515 432.215 73.6052 431.514 74.0233C431.499 74.0233 431.484 74.0382 431.469 74.0532C430.005 74.9043 428.318 75.3225 426.615 75.2478Z" fill="black"/>
<path d="M414.833 76.8755C408.158 78.3389 402.349 78.7869 397.271 79.3245C393.508 79.7277 389.775 80.3101 386.027 80.8178C375.29 82.2664 364.553 83.685 353.801 85.0439L321.559 89.0908C310.822 90.4945 300.115 92.0923 289.438 93.8395C278.761 95.5867 268.113 97.5429 257.466 99.5439C246.818 101.56 236.186 103.591 225.553 105.666L161.788 118.195C156.71 119.166 151.738 120.122 146.929 121.048C144.525 121.496 142.165 121.944 139.851 122.392C139.313 122.496 138.044 122.735 136.326 122.959C135.908 123.019 134.863 123.138 133.713 123.228C131.682 123.377 126.739 123.736 126.202 122.302C126.142 122.168 126.082 121.839 126.202 121.54C126.411 121.033 127.068 120.853 127.337 120.779C128.427 120.51 128.666 121.033 130.368 121.152C130.368 121.152 131.593 121.242 133.549 121.018C133.549 121.018 133.683 121.003 133.803 120.988C133.922 120.988 134.101 120.958 134.37 120.928C134.923 120.868 135.475 120.809 136.043 120.734C137.163 120.555 138.268 120.361 139.418 120.152C141.732 119.689 144.092 119.226 146.496 118.748C151.305 117.807 156.262 116.836 161.355 115.851L224.926 103.725C235.529 101.709 246.131 99.753 256.734 97.7968C267.351 95.8555 277.969 93.9739 288.631 92.2715C299.294 90.5841 309.971 89.046 320.693 87.702C327.085 86.8956 335.746 85.8503 352.815 83.8493C384.354 80.1608 408.591 77.4131 412.205 76.5022C414.221 75.9945 415.311 75.9049 417.506 75.7406C418.895 75.6361 419.014 75.6958 419.014 75.7406C419.044 75.9497 415.684 76.6963 414.848 76.8755H414.833Z" fill="black"/>
</svg>
