<svg width="199" height="200" viewBox="0 0 199 200" fill="none" xmlns="http://www.w3.org/2000/svg">
<path d="M103.852 24.4589C103.628 24.5977 101.577 27.4115 99.2875 30.7157C96.9983 34.02 94.9874 36.8124 94.8231 36.9139C94.6588 37.0155 93.0358 36.5853 91.2214 35.9591C89.6714 35.4241 88.609 35.1397 87.9715 35.1397C86.9101 35.1397 87.0262 35.9278 88.0302 37.6594C89.0463 39.4118 89.7463 42.2779 90.1912 46.4961L90.3838 48.322H80.2405C64.2355 48.3215 55.8565 47.2232 53.4625 44.8292C52.7847 44.1514 51.9777 43.598 51.6701 43.598C51.3624 43.598 50.8887 44.4948 50.6147 45.5831C49.1621 51.3518 44.8205 56.5976 37.6152 61.3048C35.0754 62.964 33 64.5728 33 64.873C33 66.3105 36.4956 65.916 42.959 63.7506C47.9309 62.0849 52.9956 59.4484 55.5398 57.2089C58.5775 54.535 60.1866 54.2444 73.4225 54.0009C79.1354 53.9095 84.8301 53.8107 90.5095 54.3946C90.4319 55.4424 90.3364 56.4886 90.2498 57.5356L87.8962 57.6445C80.7956 57.9681 73.5704 59.5354 69.3517 61.665C66.075 63.3191 62.8227 66.3513 61.3694 69.1112C60.3534 71.0407 60.2414 71.7257 60.2387 75.7617C60.2351 81.1169 60.9955 84.0203 63.3378 87.5049C66.7162 92.5306 71.8151 94.9685 79.9557 95.4453L84.6798 95.7217L78.6742 101.727C68.0375 112.374 60.8817 117.435 52.9432 119.92C50.6811 120.628 48.1094 120.955 42.5067 121.252C38.4175 121.468 34.8943 121.761 34.6752 121.897C34.0274 122.297 34.6865 122.935 35.7473 122.935C36.6762 122.935 41.5363 124.784 49.7268 128.246C52.082 129.241 53.7194 129.723 55.226 129.723C56.5007 129.723 57.6817 129.378 59.1247 128.706C64.8743 126.03 69.5962 121.833 79.1098 110.932C82.5723 106.956 86.0602 103.004 89.6467 99.1391L89.3871 129.159C89.109 161.257 88.9587 163.747 86.8073 171.784C86.2142 174 85.0552 177.377 84.2275 179.289C82.7081 182.798 80.01 187.263 79.4113 187.263C79.2328 187.263 79.0673 186.501 79.0427 185.562C78.983 183.286 78.038 181.963 75.3405 180.386C73.86 179.521 73.0693 179.22 72.015 179.22C71.7755 179.22 71.5225 179.236 71.2447 179.264C69.0116 179.488 66.5768 181.276 65.4653 183.51C65.0962 184.252 64.92 184.685 64.92 185.128C64.92 185.517 65.0553 185.914 65.3145 186.534C66.051 188.297 68.2082 190.036 71.0353 191.141C72.5093 191.717 74.088 192.002 75.6651 192.002C77.6325 192.002 79.5977 191.558 81.3545 190.68C87.5551 187.582 93.5241 178.368 96.2972 167.604C97.0993 164.286 98.436 161.238 99.8905 158.181L102.789 159.396C106.016 160.75 109.349 161.432 112.599 161.432C115.202 161.432 117.752 160.995 120.152 160.116C123.45 158.909 126.605 156.948 126.375 156.255C126.267 155.928 124.66 155.648 121.953 155.476C112.545 154.876 106.541 151.948 103.593 146.53C102.019 143.639 101.646 139.575 101.633 125.297C101.618 109.686 102.045 99.3485 102.705 99.3485C103.627 99.3485 113.652 110.495 121.676 120.431C125.233 124.835 127.774 126.991 131.728 128.983C136.806 131.541 140.856 132.528 146.427 132.559C151.353 132.587 155.222 131.841 155.222 130.859C155.222 130.522 154.354 130.196 152.969 130.013C146.466 129.154 136.137 123.029 123.737 112.683C118.031 107.922 108.815 99.3143 107.605 97.6146L106.717 96.375L110.092 96.6347C118.514 97.2841 125.962 94.1095 129.273 88.4597C132.553 82.8633 133.182 74.9433 130.748 69.9153C127.815 63.8564 119.303 59.8128 108.049 59.127L103.115 58.8255C103.036 57.4681 102.943 56.1116 102.856 54.7548H109.339C120.811 54.7548 134.574 56.0889 137.021 57.4435C137.541 57.7311 139.229 59.0371 140.774 60.3416C142.318 61.646 145.285 63.7282 147.366 64.9735C151.78 67.6152 163.475 73.4483 165.19 73.8604C167.415 74.3954 166.406 73.25 162.174 70.4597C157.575 67.427 153.134 63.0483 150.431 58.8758C149.497 57.433 147.591 53.8917 146.201 51.0023C143.516 45.4216 142.879 44.8431 141.285 46.6049C139.232 48.8728 128.696 49.888 114.54 49.1847C110.776 48.9678 107.008 48.839 103.241 48.7492L103.509 38.7734C103.658 33.2895 103.888 27.7674 104.02 26.5026C104.167 25.0943 104.103 24.3043 103.852 24.4589ZM90.0404 62.8125V89.5067L88.8594 89.9674C87.231 90.5943 80.3122 90.8355 78.3392 90.3359C72.3634 88.8228 69.5511 84.1282 70.0051 76.4318C70.3973 69.7829 72.4399 66.1035 76.8315 64.1526C78.7313 63.3087 79.9949 63.1203 84.5709 62.98L90.0404 62.8125ZM103.006 63.9684L108.635 64.2113C114.654 64.4698 115.679 64.7306 117.849 66.5565C121.459 69.5945 123.159 77.48 121.542 83.7189C120.648 87.1719 119.305 89.0605 116.777 90.4364C112.804 92.5988 104.135 92.2231 102.856 89.8334C102.168 80.4351 102.532 72.9752 103.006 63.9684Z" fill="black"/>
<path d="M93.5876 28.9128C91.6958 26.8558 90.898 24.9956 90.8963 22.6379C90.8933 18.5233 92.9491 16.3968 97.3461 15.9659C100.185 15.6877 102.031 14.4969 105.316 10.8225C106.997 8.94328 108.071 8 108.561 8C109.119 8 108.922 9.21994 108.005 11.6707C106.94 14.5154 104.968 16.9099 103.016 17.7252C98.5477 21.7046 97.3835 24.8806 94.5945 29.8777C94.5288 29.8777 94.0757 29.4435 93.5876 28.9128Z" fill="black"/>
<path d="M72.2566 145.241C72.2566 143.665 70.9785 142.387 69.4025 142.387C67.8266 142.387 66.5485 143.665 66.5485 145.241C66.5485 146.817 67.8266 148.095 69.4025 148.095C70.9785 148.095 72.2566 146.817 72.2566 145.241ZM76.715 149.624C76.715 148.048 75.4368 146.77 73.8609 146.77C72.285 146.77 71.0068 148.048 71.0068 149.624C71.0068 151.2 72.285 152.478 73.8609 152.478C75.4368 152.478 76.715 151.2 76.715 149.624ZM67.589 149.313C67.589 147.737 66.3109 146.458 64.735 146.458C63.159 146.458 61.8809 147.737 61.8809 149.313C61.8809 150.888 63.159 152.167 64.735 152.167C66.3109 152.167 67.589 150.888 67.589 149.313ZM72.1597 153.836C72.1597 152.26 70.8816 150.981 69.3057 150.981C67.7297 150.981 66.4516 152.26 66.4516 153.836C66.4516 155.411 67.7297 156.69 69.3057 156.69C70.8816 156.69 72.1597 155.411 72.1597 153.836Z" fill="black"/>
<path d="M123.723 34.1719C123.723 32.5959 122.445 31.3178 120.869 31.3178C119.293 31.3178 118.015 32.5959 118.015 34.1719C118.015 35.7478 119.293 37.0259 120.869 37.0259C122.445 37.0259 123.723 35.7478 123.723 34.1719ZM128.181 38.5549C128.181 36.979 126.903 35.7009 125.327 35.7009C123.751 35.7009 122.473 36.979 122.473 38.5549C122.473 40.1309 123.751 41.409 125.327 41.409C126.903 41.409 128.181 40.1309 128.181 38.5549ZM119.055 38.2432C119.055 36.6673 117.777 35.3892 116.201 35.3892C114.625 35.3892 113.347 36.6673 113.347 38.2432C113.347 39.8192 114.625 41.0973 116.201 41.0973C117.777 41.0973 119.055 39.8192 119.055 38.2432ZM123.626 42.7662C123.626 41.1903 122.348 39.9122 120.772 39.9122C119.196 39.9122 117.918 41.1903 117.918 42.7662C117.918 44.3422 119.196 45.6203 120.772 45.6203C122.348 45.6203 123.626 44.3422 123.626 42.7662Z" fill="black"/>
<path d="M103.852 24.4589C103.628 24.5977 101.577 27.4115 99.2875 30.7157C96.9983 34.02 94.9874 36.8124 94.8231 36.9139C94.6588 37.0155 93.0358 36.5853 91.2214 35.9591C89.6714 35.4241 88.609 35.1397 87.9715 35.1397C86.9101 35.1397 87.0262 35.9278 88.0302 37.6594C89.0463 39.4118 89.7463 42.2779 90.1912 46.4961L90.3838 48.322H80.2405C64.2355 48.3215 55.8565 47.2232 53.4625 44.8292C52.7847 44.1514 51.9777 43.598 51.6701 43.598C51.3624 43.598 50.8887 44.4948 50.6147 45.5831C49.1621 51.3518 44.8205 56.5976 37.6152 61.3048C35.0754 62.964 33 64.5728 33 64.873C33 66.3105 36.4956 65.916 42.959 63.7506C47.9309 62.0849 52.9956 59.4484 55.5398 57.2089C58.5775 54.535 60.1866 54.2444 73.4225 54.0009C79.1354 53.9095 84.8301 53.8107 90.5095 54.3946C90.4319 55.4424 90.3364 56.4886 90.2498 57.5356L87.8962 57.6445C80.7956 57.9681 73.5704 59.5354 69.3517 61.665C66.075 63.3191 62.8227 66.3513 61.3694 69.1112C60.3534 71.0407 60.2414 71.7257 60.2387 75.7617C60.2351 81.1169 60.9955 84.0203 63.3378 87.5049C66.7162 92.5306 71.8151 94.9685 79.9557 95.4453L84.6798 95.7217L78.6742 101.727C68.0375 112.374 60.8817 117.435 52.9432 119.92C50.6811 120.628 48.1094 120.955 42.5067 121.252C38.4175 121.468 34.8943 121.761 34.6752 121.897C34.0274 122.297 34.6865 122.935 35.7473 122.935C36.6762 122.935 41.5363 124.784 49.7268 128.246C52.082 129.241 53.7194 129.723 55.226 129.723C56.5007 129.723 57.6817 129.378 59.1247 128.706C64.8743 126.03 69.5962 121.833 79.1098 110.932C82.5723 106.956 86.0602 103.004 89.6467 99.1391L89.3871 129.159C89.109 161.257 88.9587 163.747 86.8073 171.784C86.2142 174 85.0552 177.377 84.2275 179.289C82.7081 182.798 80.01 187.263 79.4113 187.263C79.2328 187.263 79.0673 186.501 79.0427 185.562C78.983 183.286 78.038 181.963 75.3405 180.386C73.86 179.521 73.0693 179.22 72.015 179.22C71.7755 179.22 71.5225 179.236 71.2447 179.264C69.0116 179.488 66.5768 181.276 65.4653 183.51C65.0962 184.252 64.92 184.685 64.92 185.128C64.92 185.517 65.0553 185.914 65.3145 186.534C66.051 188.297 68.2082 190.036 71.0353 191.141C72.5093 191.717 74.088 192.002 75.6651 192.002C77.6325 192.002 79.5977 191.558 81.3545 190.68C87.5551 187.582 93.5241 178.368 96.2972 167.604C97.0993 164.286 98.436 161.238 99.8905 158.181L102.789 159.396C106.016 160.75 109.349 161.432 112.599 161.432C115.202 161.432 117.752 160.995 120.152 160.116C123.45 158.909 126.605 156.948 126.375 156.255C126.267 155.928 124.66 155.648 121.953 155.476C112.545 154.876 106.541 151.948 103.593 146.53C102.019 143.639 101.646 139.575 101.633 125.297C101.618 109.686 102.045 99.3485 102.705 99.3485C103.627 99.3485 113.652 110.495 121.676 120.431C125.233 124.835 127.774 126.991 131.728 128.983C136.806 131.541 140.856 132.528 146.427 132.559C151.353 132.587 155.222 131.841 155.222 130.859C155.222 130.522 154.354 130.196 152.969 130.013C146.466 129.154 136.137 123.029 123.737 112.683C118.031 107.922 108.815 99.3143 107.605 97.6146L106.717 96.375L110.092 96.6347C118.514 97.2841 125.962 94.1095 129.273 88.4597C132.553 82.8633 133.182 74.9433 130.748 69.9153C127.815 63.8564 119.303 59.8128 108.049 59.127L103.115 58.8255C103.036 57.4681 102.943 56.1116 102.856 54.7548H109.339C120.811 54.7548 134.574 56.0889 137.021 57.4435C137.541 57.7311 139.229 59.0371 140.774 60.3416C142.318 61.646 145.285 63.7282 147.366 64.9735C151.78 67.6152 163.475 73.4483 165.19 73.8604C167.415 74.3954 166.406 73.25 162.174 70.4597C157.575 67.427 153.134 63.0483 150.431 58.8758C149.497 57.433 147.591 53.8917 146.201 51.0023C143.516 45.4216 142.879 44.8431 141.285 46.6049C139.232 48.8728 128.696 49.888 114.54 49.1847C110.776 48.9678 107.008 48.839 103.241 48.7492L103.509 38.7734C103.658 33.2895 103.888 27.7674 104.02 26.5026C104.167 25.0943 104.103 24.3043 103.852 24.4589ZM90.0404 62.8125V89.5067L88.8594 89.9674C87.231 90.5943 80.3122 90.8355 78.3392 90.3359C72.3634 88.8228 69.5511 84.1282 70.0051 76.4318C70.3973 69.7829 72.4399 66.1035 76.8315 64.1526C78.7313 63.3087 79.9949 63.1203 84.5709 62.98L90.0404 62.8125ZM103.006 63.9684L108.635 64.2113C114.654 64.4698 115.679 64.7306 117.849 66.5565C121.459 69.5945 123.159 77.48 121.542 83.7189C120.648 87.1719 119.305 89.0605 116.777 90.4364C112.804 92.5988 104.135 92.2231 102.856 89.8334C102.168 80.4351 102.532 72.9752 103.006 63.9684Z" fill="black"/>
<path d="M93.5876 28.9128C91.6958 26.8558 90.898 24.9956 90.8963 22.6379C90.8933 18.5233 92.9491 16.3968 97.3461 15.9659C100.185 15.6877 102.031 14.4969 105.316 10.8225C106.997 8.94328 108.071 8 108.561 8C109.119 8 108.922 9.21994 108.005 11.6707C106.94 14.5154 104.968 16.9099 103.016 17.7252C98.5477 21.7046 97.3835 24.8806 94.5945 29.8777C94.5288 29.8777 94.0757 29.4435 93.5876 28.9128Z" fill="black"/>
<path d="M72.2566 145.241C72.2566 143.665 70.9785 142.387 69.4025 142.387C67.8266 142.387 66.5485 143.665 66.5485 145.241C66.5485 146.817 67.8266 148.095 69.4025 148.095C70.9785 148.095 72.2566 146.817 72.2566 145.241ZM76.715 149.624C76.715 148.048 75.4368 146.77 73.8609 146.77C72.285 146.77 71.0068 148.048 71.0068 149.624C71.0068 151.2 72.285 152.478 73.8609 152.478C75.4368 152.478 76.715 151.2 76.715 149.624ZM67.589 149.313C67.589 147.737 66.3109 146.458 64.735 146.458C63.159 146.458 61.8809 147.737 61.8809 149.313C61.8809 150.888 63.159 152.167 64.735 152.167C66.3109 152.167 67.589 150.888 67.589 149.313ZM72.1597 153.836C72.1597 152.26 70.8816 150.981 69.3057 150.981C67.7297 150.981 66.4516 152.26 66.4516 153.836C66.4516 155.411 67.7297 156.69 69.3057 156.69C70.8816 156.69 72.1597 155.411 72.1597 153.836Z" fill="black"/>
<path d="M123.723 34.1719C123.723 32.5959 122.445 31.3178 120.869 31.3178C119.293 31.3178 118.015 32.5959 118.015 34.1719C118.015 35.7478 119.293 37.0259 120.869 37.0259C122.445 37.0259 123.723 35.7478 123.723 34.1719ZM128.181 38.5549C128.181 36.979 126.903 35.7009 125.327 35.7009C123.751 35.7009 122.473 36.979 122.473 38.5549C122.473 40.1309 123.751 41.409 125.327 41.409C126.903 41.409 128.181 40.1309 128.181 38.5549ZM119.055 38.2432C119.055 36.6673 117.777 35.3892 116.201 35.3892C114.625 35.3892 113.347 36.6673 113.347 38.2432C113.347 39.8192 114.625 41.0973 116.201 41.0973C117.777 41.0973 119.055 39.8192 119.055 38.2432ZM123.626 42.7662C123.626 41.1903 122.348 39.9122 120.772 39.9122C119.196 39.9122 117.918 41.1903 117.918 42.7662C117.918 44.3422 119.196 45.6203 120.772 45.6203C122.348 45.6203 123.626 44.3422 123.626 42.7662Z" fill="black"/>
</svg>
